<svg width="236" height="236" viewBox="0 0 236 236" fill="none" xmlns="http://www.w3.org/2000/svg">
<circle cx="118" cy="118" r="117.5" stroke="#6FACCD"/>
<path d="M224.5 118C224.5 182.941 176.773 235.5 118 235.5C59.2266 235.5 11.5 182.941 11.5 118C11.5 53.0594 59.2266 0.5 118 0.5C176.773 0.5 224.5 53.0594 224.5 118Z" stroke="#6FACCD"/>
<path d="M213.5 118C213.5 182.995 170.652 235.5 118 235.5C65.3483 235.5 22.5 182.995 22.5 118C22.5 53.0052 65.3483 0.5 118 0.5C170.652 0.5 213.5 53.0052 213.5 118Z" stroke="#6FACCD"/>
<path d="M202.5 118C202.5 150.492 193.012 179.887 177.698 201.146C162.384 222.407 141.271 235.5 118 235.5C94.7294 235.5 73.6163 222.407 58.3016 201.146C42.9875 179.887 33.5 150.492 33.5 118C33.5 85.5083 42.9875 56.1133 58.3016 34.8536C73.6163 13.5933 94.7294 0.5 118 0.5C141.271 0.5 162.384 13.5933 177.698 34.8536C193.012 56.1133 202.5 85.5083 202.5 118Z" stroke="#6FACCD"/>
<path d="M191.5 118C191.5 150.506 183.236 179.911 169.902 201.173C156.564 222.442 138.201 235.5 118 235.5C97.7992 235.5 79.436 222.442 66.0977 201.173C52.7636 179.911 44.5 150.506 44.5 118C44.5 85.4942 52.7636 56.0895 66.0977 34.827C79.436 13.5578 97.7992 0.5 118 0.5C138.201 0.5 156.564 13.5578 169.902 34.827C183.236 56.0895 191.5 85.4942 191.5 118Z" stroke="#6FACCD"/>
<path d="M180.5 118C180.5 150.519 173.462 179.935 162.107 201.203C150.74 222.492 135.123 235.5 118 235.5C100.877 235.5 85.2597 222.492 73.8933 201.203C62.5384 179.935 55.5 150.519 55.5 118C55.5 85.4807 62.5384 56.0649 73.8933 34.7969C85.2597 13.5076 100.877 0.5 118 0.5C135.123 0.5 150.74 13.5076 162.107 34.7969C173.462 56.0649 180.5 85.4807 180.5 118Z" stroke="#6FACCD"/>
<path d="M169.5 118C169.5 150.532 163.688 179.96 154.312 201.237C149.624 211.876 144.054 220.454 137.895 226.366C131.738 232.276 125.016 235.5 118 235.5C110.984 235.5 104.262 232.276 98.1055 226.366C91.9461 220.454 86.3764 211.876 81.688 201.237C72.3119 179.96 66.5 150.532 66.5 118C66.5 85.4679 72.3119 56.0396 81.688 34.763C86.3764 24.1241 91.9461 15.5456 98.1055 9.63375C104.262 3.7243 110.984 0.5 118 0.5C125.016 0.5 131.738 3.7243 137.895 9.63375C144.054 15.5456 149.624 24.1241 154.312 34.763C163.688 56.0396 169.5 85.4679 169.5 118Z" stroke="#6FACCD"/>
<path d="M158.5 118C158.5 150.544 153.916 179.986 146.519 201.274C142.82 211.921 138.426 220.501 133.573 226.41C128.716 232.322 123.451 235.5 118 235.5C112.549 235.5 107.284 232.322 102.427 226.41C97.5735 220.501 93.1801 211.921 89.4809 201.274C82.0841 179.986 77.5 150.544 77.5 118C77.5 85.4558 82.0841 56.0138 89.4809 34.7255C93.1801 24.079 97.5735 15.499 102.427 9.59041C107.284 3.67833 112.549 0.5 118 0.5C123.451 0.5 128.716 3.67833 133.573 9.59041C138.426 15.499 142.82 24.079 146.519 34.7255C153.916 56.0138 158.5 85.4558 158.5 118Z" stroke="#6FACCD"/>
<path d="M147.5 118C147.5 150.556 144.145 180.012 138.729 201.315C136.02 211.971 132.802 220.558 129.249 226.469C125.677 232.412 121.86 235.5 118 235.5C114.14 235.5 110.323 232.412 106.751 226.469C103.198 220.558 99.9804 211.971 97.2714 201.315C91.8554 180.012 88.5 150.556 88.5 118C88.5 85.4443 91.8554 55.9876 97.2714 34.6846C99.9804 24.0293 103.198 15.442 106.751 9.53061C110.323 3.58805 114.14 0.5 118 0.5C121.86 0.5 125.677 3.58805 129.249 9.53061C132.802 15.442 136.02 24.0293 138.729 34.6846C144.145 55.9876 147.5 85.4443 147.5 118Z" stroke="#6FACCD"/>
<path d="M134.5 118C134.5 150.569 132.598 180.044 129.526 201.367C127.989 212.033 126.163 220.638 124.144 226.566C123.133 229.533 122.084 231.8 121.017 233.315C119.938 234.847 118.923 235.5 118 235.5C117.077 235.5 116.062 234.847 114.983 233.315C113.916 231.8 112.867 229.533 111.856 226.566C109.837 220.638 108.011 212.033 106.474 201.367C103.402 180.044 101.5 150.569 101.5 118C101.5 85.4314 103.402 55.9563 106.474 34.6327C108.011 23.9671 109.837 15.3621 111.856 9.43424C112.867 6.46704 113.916 4.20034 114.983 2.68518C116.062 1.15265 117.077 0.5 118 0.5C118.923 0.5 119.938 1.15265 121.017 2.68518C122.084 4.20034 123.133 6.46704 124.144 9.43424C126.163 15.3621 127.989 23.9671 129.526 34.6327C132.598 55.9563 134.5 85.4314 134.5 118Z" stroke="#6FACCD"/>
<path d="M123.5 118C123.5 150.579 122.829 180.07 121.743 201.413C121.201 212.086 120.555 220.713 119.839 226.667C119.481 229.647 119.107 231.941 118.724 233.482C118.531 234.257 118.343 234.814 118.166 235.167C118.101 235.297 118.045 235.385 118 235.442C117.955 235.385 117.899 235.297 117.834 235.167C117.657 234.814 117.469 234.257 117.276 233.482C116.893 231.941 116.519 229.647 116.161 226.667C115.445 220.713 114.799 212.086 114.257 201.413C113.171 180.07 112.5 150.579 112.5 118C112.5 85.4209 113.171 55.9297 114.257 34.5868C114.799 23.9136 115.445 15.2867 116.161 9.3327C116.519 6.35264 116.893 4.05906 117.276 2.51792C117.469 1.74335 117.657 1.18633 117.834 0.833073C117.899 0.703059 117.955 0.615027 118 0.558166C118.045 0.615027 118.101 0.703059 118.166 0.833073C118.343 1.18633 118.531 1.74335 118.724 2.51792C119.107 4.05906 119.481 6.35264 119.839 9.3327C120.555 15.2867 121.201 23.9136 121.743 34.5868C122.829 55.9297 123.5 85.4209 123.5 118Z" stroke="#6FACCD"/>
</svg>
