<svg width="175" height="169" viewBox="0 0 175 169" fill="none" xmlns="http://www.w3.org/2000/svg">
<path d="M20.4956 138.285C6.36233 122.195 -0.952807 101.236 0.099675 79.8462C1.46756 57.8416 11.4846 37.2717 27.9642 22.6262C45.6187 6.79522 68.8845 -1.29432 92.5525 0.16892C115.713 1.57384 137.397 12.0176 152.933 29.2515C167.646 45.4887 175.307 66.9063 174.227 88.7915C172.798 110.772 162.77 131.305 146.313 145.946C139.024 152.441 130.737 157.72 121.77 161.583C121.316 161.776 118.148 163.077 117.781 163.144C115.882 164.021 111.396 165.284 109.314 165.815C91.5192 170.346 74.5636 169.368 57.3105 163.487C57.0486 163.365 56.7986 163.261 56.5311 163.15C55.185 162.701 53.7186 162.061 52.4071 161.513C43.263 157.701 34.95 152.096 27.5708 145.528C25.597 143.78 22.1564 140.361 20.4956 138.285Z" fill="#6FACCD"/>
<path d="M64.6585 7.74951C65.0933 7.80564 64.9545 7.73147 65.2781 7.98466C65.3599 8.56418 64.9768 8.59467 64.962 9.25757C64.222 9.80984 63.3355 10.4381 62.6436 11.0307C59.8848 13.1462 56.4468 16.5252 54.1086 19.1234C41.5705 33.0552 33.9025 51.5429 31.4192 70.0459C28.0295 95.3008 33.4769 123.382 49.0288 143.962C49.4442 144.511 51.9701 147.719 52.4295 148.103L52.5587 148.007C53.4214 147.997 53.0054 147.621 53.3234 147.115C54.4477 148.372 55.5751 149.544 56.6974 150.779C57.1743 151.253 57.6566 151.721 58.1441 152.183C58.0356 152.342 57.5754 153.279 57.5815 153.477C61.4499 157.022 64.1355 159.1 68.4953 161.869C68.6174 162.103 68.6896 162.201 68.7177 162.467C68.3253 162.602 68.3825 162.456 67.9907 162.485C67.2589 162.246 66.294 161.757 65.585 161.411L65.3008 161.664C65.3364 161.863 65.2985 161.769 65.467 161.926C65.099 162 64.993 162.01 64.6588 162.166L64.8267 162.473C62.6412 161.561 60.9489 160.285 59.0219 159.407C59.2737 159.821 59.2689 159.687 59.2838 160.118C59.0231 160.272 58.3516 160.169 57.8808 160.192L57.6549 160.068C57.094 159.686 54.944 158.644 54.233 158.28C54.3123 158.513 54.3708 158.603 54.3332 158.843L54.0061 158.883C53.9604 159.116 53.9923 159.049 53.8667 159.232C52.6901 159.285 49.5937 157.178 48.5162 156.508C48.6812 157.475 48.917 156.999 49.3555 157.649L49.2257 157.868C48.9128 157.924 47.7346 157.335 47.4769 157.162C47.193 157.19 46.9682 157.225 46.6867 157.273C48.7327 158.541 51.3764 159.442 53.4198 160.545C53.2539 160.732 53.2568 160.713 53.0121 160.78C52.8062 161.03 52.6458 161.324 52.4072 161.513C43.2631 157.701 34.9501 152.096 27.5708 145.528C25.597 143.779 22.1565 140.361 20.4957 138.285C20.4507 137.868 20.4098 138.053 20.5906 137.703L20.6336 137.724C20.8422 137.296 20.855 137.423 20.8175 137.009L21.0174 136.85C20.746 136.278 18.3503 133.488 17.8073 132.773C16.0443 130.432 14.4043 128.001 12.894 125.489C1.90525 107.314 -1.36901 85.5034 3.7988 64.9033C8.2435 47.5929 18.1567 32.1795 32.0641 20.955C35.9345 17.8177 39.692 15.3337 43.9773 12.7927C44.1845 12.7146 44.7256 12.3862 44.9454 12.2606C47.5581 10.7812 51.0669 9.14066 53.817 7.99843C54.1737 8.10604 54.0618 7.99957 54.2476 8.2428C54.1767 8.57302 54.1108 8.63864 53.9282 8.91473L54.4453 8.67445C54.5289 8.89307 54.5423 8.88291 54.5107 9.11056C54.6253 9.31589 54.8563 9.71715 54.9209 9.93691L56.6641 9.07485C57.1644 9.12006 57.7478 9.29395 58.2361 8.95699C58.6099 8.69914 58.7605 8.38288 59.2757 8.45478L59.3432 8.62649L59.2687 8.79573C59.2284 8.79962 59.1881 8.80351 59.1477 8.80741L59.0031 8.82403C58.3787 8.88586 57.2946 9.98003 57.0368 10.5531C57.7994 10.1671 58.9953 9.30174 59.9292 8.7943L59.8342 9.13554C60.1298 9.63595 60.2446 9.78838 60.8845 9.7502C60.9942 9.71629 61.279 9.53404 61.3942 9.46556C62.4296 8.96782 63.5507 8.29028 64.6585 7.74951Z" fill="#FDFEFD"/>
<path d="M64.6585 7.74951C65.0933 7.80564 64.9545 7.73147 65.2781 7.98466C65.3599 8.56418 64.9767 8.59467 64.962 9.25757C64.222 9.80984 63.3355 10.4381 62.6436 11.0307C59.8848 13.1462 56.4468 16.5252 54.1086 19.1234C41.5705 33.0552 33.9025 51.5429 31.4192 70.0459C28.0295 95.3008 33.4768 123.382 49.0288 143.962C49.4442 144.511 51.9701 147.719 52.4295 148.103L52.5587 148.007C53.4214 147.997 53.0054 147.621 53.3234 147.115C54.4477 148.372 55.5751 149.544 56.6974 150.779C57.1743 151.253 57.6566 151.721 58.1441 152.183C58.0356 152.342 57.5754 153.279 57.5814 153.477C61.4499 157.022 64.1355 159.1 68.4953 161.869C68.6174 162.103 68.6896 162.201 68.7177 162.467C68.3253 162.602 68.3824 162.456 67.9907 162.485C67.2589 162.246 66.294 161.757 65.5849 161.411L65.3008 161.664C65.3364 161.863 65.2985 161.769 65.467 161.926C65.099 162 64.993 162.01 64.6588 162.166L64.8267 162.473C62.6412 161.561 60.9489 160.285 59.0219 159.407C58.861 159.255 57.3565 158.306 57.0366 158.089C55.6216 157.13 54.1241 156.168 52.7604 155.137C47.4388 151.131 42.6405 146.473 38.4779 141.273L38.7649 141.313C38.9649 141.109 39.1121 141.07 39.3761 140.937C39.5227 140.684 39.4273 140.796 39.7356 140.655C39.486 140.341 39.2771 140.093 39.0064 139.798C35.176 134.717 31.4677 129.047 28.8981 123.205C27.2322 120.054 25.2568 114.291 24.2276 110.897L23.7316 109.121L23.6348 108.742L23.6141 108.693C18.637 90.3803 19.3912 70.9816 25.7754 53.1102C25.7434 52.7106 25.3436 51.1394 25.2204 50.7174C25.551 49.7722 26.0617 48.5856 26.4716 47.6805L26.5009 47.6274C27.1058 46.0268 28.2859 43.6829 29.08 42.1538C32.237 35.9641 36.1322 30.1799 40.6807 24.9274C41.7844 23.6604 44.0138 21.0932 45.291 20.0436L45.8132 19.4924C46.163 19.1543 46.552 18.8151 46.9147 18.4871L47.5224 17.9175C48.7751 16.8109 50.4843 15.2378 51.8348 14.291C52.1756 13.9977 52.3073 13.8798 52.6858 13.6487C53.3405 13.0631 54.371 12.375 55.1086 11.8516C55.6077 11.5055 56.1128 11.1679 56.6237 10.8393L57.0368 10.5531C57.7994 10.1671 58.9953 9.30174 59.9292 8.7943L59.8342 9.13554C60.1298 9.63595 60.2446 9.78838 60.8845 9.7502C60.9942 9.71629 61.279 9.53404 61.3942 9.46556C62.4296 8.96782 63.5506 8.29028 64.6585 7.74951Z" fill="#FDFEFD"/>
<path d="M39.7357 140.655C46.7632 149.165 55.5214 156.717 65.5851 161.411L65.3009 161.665C65.3365 161.863 65.2986 161.769 65.4671 161.926C65.0991 162 64.9931 162.01 64.6589 162.166L64.8268 162.473C62.6413 161.561 60.949 160.286 59.022 159.407C58.8611 159.255 57.3566 158.306 57.0367 158.089C55.6217 157.13 54.1242 156.168 52.7605 155.137C47.4389 151.131 42.6407 146.473 38.478 141.273L38.765 141.313C38.965 141.109 39.1123 141.07 39.3763 140.937C39.5228 140.684 39.4275 140.796 39.7357 140.655Z" fill="#6CAECE"/>
<path d="M56.162 156.766C56.217 156.665 56.3423 156.625 56.4451 156.678C56.5479 156.729 56.591 156.853 56.5424 156.958C56.5097 157.028 56.4411 157.075 56.3635 157.08C56.2859 157.086 56.2116 157.048 56.1697 156.982C56.1277 156.917 56.1247 156.834 56.162 156.766Z" fill="#76B2CF"/>
<path d="M57.0988 157.255C57.2416 157.175 57.1611 157.204 57.3442 157.181L57.1537 157.343C57.0534 157.417 57.1141 157.391 56.9642 157.401L57.0988 157.255Z" fill="#76B2CF"/>
<path d="M40.6808 24.9277C40.7351 25.2935 40.7372 25.2746 40.643 25.6314L40.7241 25.7555L41.1107 25.8112L41.1513 25.9505L40.8665 25.9562L40.8286 26.0402L41.0053 26.3536L40.8783 26.8005C34.3599 34.6308 29.2498 43.5329 25.7755 53.1105C25.7436 52.7109 25.3438 51.1397 25.2206 50.7177C25.5512 49.7726 26.0618 48.5859 26.4717 47.6808L26.5011 47.6277C27.106 46.0271 28.286 43.6832 29.0802 42.1541C32.2371 35.9645 36.1323 30.1803 40.6808 24.9277Z" fill="#69AACE"/>
<path d="M26.5008 47.6275C27.6324 46.8984 27.157 44.7037 28.5314 45.4133C28.4335 46.293 27.639 48.3555 26.547 48.1926C26.4067 47.9326 26.4674 48.0385 26.4715 47.6806L26.5008 47.6275Z" fill="#6CAECE"/>
<path d="M47.5224 17.9175C48.7752 16.8109 50.4843 15.2378 51.8348 14.291C51.7911 14.5145 51.7536 14.6936 51.7319 14.9225C51.8876 15.0799 52.503 15.1756 52.7868 15.2499C51.7133 16.2167 50.4178 17.2535 49.2843 18.1819C46.0961 20.7935 43.6497 23.8116 40.8782 26.8002L41.0053 26.3532L40.8285 26.0399L40.8664 25.9559L41.1512 25.9502L41.1106 25.8109L40.7241 25.7552L40.6429 25.6311C40.7372 25.2743 40.7351 25.2932 40.6807 24.9274C41.7845 23.6604 44.0139 21.0932 45.2911 20.0436L45.8132 19.4925C46.1631 19.1544 46.5521 18.8151 46.9148 18.4871L47.5224 17.9175Z" fill="#76B2CF"/>
<path d="M47.5224 17.9177C47.7073 18.0848 47.7409 18.1047 47.9874 18.1419C48.166 18.3233 48.2294 18.3396 48.279 18.5782C48.0901 18.9192 47.8367 19.1594 47.4413 19.2344L47.3285 19.1156C47.436 18.7891 47.4543 18.9335 47.3319 18.6638C47.1922 18.6109 47.0387 18.565 46.9148 18.4873L47.5224 17.9177Z" fill="#6FACCD"/>
<path d="M45.8132 19.4924C46.0742 19.999 46.0893 19.983 46.6662 20.1293C46.4928 20.3704 45.9633 20.7751 45.6607 20.8459L45.5841 20.7683L45.7005 20.8349C45.5566 20.5207 45.553 20.3477 45.6278 20.0163L45.291 20.0436L45.8132 19.4924Z" fill="#6FACCD"/>
<path d="M44.8975 20.7678C45.1482 20.9987 45.2316 20.9604 45.4389 21.2877L45.3329 21.6029C44.9642 21.4604 44.8237 21.4897 44.6797 21.2258L44.8975 20.7678Z" fill="#6FACCD"/>
<path d="M42.874 22.9448C43.1334 23.0405 43.1732 23.0434 43.258 23.2814L43.1442 23.4812C42.8279 23.4239 42.9245 23.4834 42.6903 23.3087L42.874 22.9448Z" fill="#6FACCD"/>
<path d="M53.3236 147.115C54.4479 148.373 55.5753 149.545 56.6976 150.78C56.2565 150.729 56.1807 150.656 55.8445 150.86C55.8301 151.19 55.9701 151.595 55.8924 151.784C55.1118 151.214 53.1017 148.887 52.4297 148.104L52.5589 148.008C53.4216 147.998 53.0056 147.622 53.3236 147.115Z" fill="#76B2CF"/>
<path d="M55.1087 11.8516C55.3426 12.1575 55.1926 12.052 55.5938 12.1491C55.5401 12.4084 55.5618 12.3196 55.407 12.5569C55.5849 12.6976 55.7421 12.8247 55.9285 12.9555C55.4598 13.2849 53.0789 15.0622 52.8597 15.1662L52.7868 15.2499C52.503 15.1755 51.8877 15.0799 51.7319 14.9224C51.7537 14.6935 51.7911 14.5144 51.8349 14.2909C52.1757 13.9976 52.3074 13.8797 52.6859 13.6486C53.3406 13.063 54.3711 12.375 55.1087 11.8516Z" fill="#6FACCD"/>
<path d="M59.9293 8.79468L59.8343 9.13591C60.13 9.63632 60.2447 9.78875 60.8846 9.75057C60.2995 10.1283 58.3093 11.4098 57.7806 11.6572L57.6445 11.4587C57.091 11.314 57.186 10.961 56.6239 10.8397L57.0369 10.5535C57.7996 10.1675 58.9955 9.30211 59.9293 8.79468Z" fill="#69AACE"/>
<path d="M55.8922 151.784C55.9699 151.595 55.8299 151.189 55.8443 150.86C56.1805 150.656 56.2563 150.729 56.6974 150.779C57.1743 151.253 57.6566 151.721 58.1441 152.184C58.0356 152.342 57.5754 153.28 57.5815 153.477C57.1276 153.056 56.2083 152.257 55.8922 151.784Z" fill="#6CAECE"/>
<path d="M56.6238 10.8394C57.186 10.9606 57.0909 11.3136 57.6444 11.4584L57.7805 11.6569L55.9284 12.9556C55.7421 12.8248 55.5848 12.6977 55.4069 12.557C55.5618 12.3197 55.5401 12.4085 55.5938 12.1492C55.1926 12.0521 55.3426 12.1576 55.1086 11.8517C55.6078 11.5055 56.1129 11.168 56.6238 10.8394Z" fill="#76B2CF"/>
<path d="M53.817 7.99854C54.1737 8.10614 54.0618 7.99967 54.2476 8.2429C54.1767 8.57312 54.1108 8.63874 53.9282 8.91483L54.4453 8.67455C54.5289 8.89317 54.5422 8.88301 54.5107 9.11066C54.6253 9.31599 54.8563 9.71725 54.9209 9.93701L52.9879 10.9762L52.29 11.3544L49.7243 12.9189C48.1602 13.8249 46.6949 14.8834 45.1922 15.8879L45.027 15.7898L44.8669 15.8502C44.5963 15.6815 43.8225 15.3341 43.7288 15.2578C39.9935 17.9319 35.5793 21.7605 32.4408 25.1227C32.1369 25.4447 31.6015 25.9836 31.3504 26.3115C29.2929 28.342 26.5083 31.9785 24.8294 34.3258C14.5576 48.7309 8.98837 65.9583 8.88409 83.6502C8.79785 95.9514 11.3288 108.131 16.3089 119.379C16.6069 120.045 18.2292 123.627 18.6473 124.07L18.6711 124.243C21.3978 129.458 24.6653 134.371 28.4196 138.902C33.2619 144.545 38.0252 149.273 44.1338 153.602C45.2656 154.404 47.3342 155.862 48.5162 156.509C48.6812 157.475 48.917 157 49.3555 157.649L49.2257 157.868C48.9128 157.924 47.7346 157.335 47.4769 157.162C47.193 157.19 46.9682 157.225 46.6867 157.273C48.7327 158.541 51.3764 159.442 53.4198 160.545C53.2539 160.732 53.2568 160.713 53.0121 160.78C52.8062 161.03 52.6457 161.325 52.4072 161.513C43.2631 157.701 34.9501 152.096 27.5708 145.528C25.597 143.779 22.1565 140.361 20.4957 138.285C20.4507 137.868 20.4098 138.054 20.5906 137.703L20.6336 137.724C20.8422 137.296 20.855 137.423 20.8175 137.009L21.0174 136.85C20.746 136.279 18.3503 133.488 17.8073 132.773C16.0443 130.432 14.4043 128.001 12.894 125.489C1.90525 107.314 -1.36901 85.5035 3.7988 64.9034C8.2435 47.593 18.1567 32.1796 32.0641 20.9551C35.9345 17.8178 39.692 15.3338 43.9773 12.7928C44.1845 12.7147 44.7255 12.3863 44.9454 12.2607C47.5581 10.7813 51.0669 9.14077 53.817 7.99854Z" fill="#FDFEFD"/>
<path d="M28.4675 144.471C33.5705 149.136 40.4684 154.095 46.6868 157.273C48.7328 158.541 51.3764 159.443 53.4198 160.545C53.2539 160.732 53.2569 160.713 53.0121 160.781C52.8062 161.031 52.6458 161.325 52.4072 161.513C43.2631 157.702 34.9501 152.097 27.5709 145.528L27.4128 145.15C27.5925 144.872 28.1326 144.812 28.4675 144.471Z" fill="#6FACCD"/>
<path d="M21.0174 136.85C21.6326 137.468 22.2352 138.141 22.808 138.798C24.575 140.826 26.5404 142.607 28.4675 144.471C28.1327 144.812 27.5925 144.871 27.4129 145.15L27.5709 145.528C25.5971 143.779 22.1565 140.361 20.4957 138.285C20.4507 137.868 20.4099 138.053 20.5907 137.703L20.6336 137.724C20.8423 137.296 20.8551 137.423 20.8176 137.009L21.0174 136.85Z" fill="#76B2CF"/>
<path d="M43.7289 15.2576C45.1351 14.2607 46.5643 13.2152 48.0449 12.3391C48.2665 12.5048 48.2878 12.5422 48.4033 12.7937C49.0393 13.0763 49.2695 12.3987 49.7244 12.9186C48.1603 13.8247 46.695 14.8832 45.1922 15.8877L45.0271 15.7895L44.8669 15.8499C44.5964 15.6813 43.8225 15.3339 43.7289 15.2576Z" fill="#76B2CF"/>
<path d="M51.3627 10.3543C51.8486 10.3837 52.0891 10.1845 52.5367 10.1353C52.9943 10.6541 52.7519 10.5476 52.9878 10.9762L52.2898 11.3544L49.7242 12.9189C49.2692 12.3989 49.039 13.0765 48.4031 12.794C48.2876 12.5424 48.2662 12.5051 48.0447 12.3394C48.9132 11.7346 50.3126 10.8945 51.2568 10.4296L51.3627 10.3543Z" fill="#6FACCD"/>
<path d="M54.4453 8.67456C54.5289 8.89319 54.5423 8.88303 54.5108 9.11067C54.6253 9.316 54.8564 9.71726 54.921 9.93703L52.988 10.9762C52.7521 10.5476 52.9945 10.6541 52.5369 10.1352C52.0893 10.1845 51.8488 10.3837 51.3629 10.3542C52.029 9.92496 53.2011 9.31724 53.9282 8.91484L54.4453 8.67456Z" fill="#76B2CF"/>
<path d="M43.7288 15.2578C43.8225 15.3341 44.5963 15.6815 44.8669 15.8502L45.027 15.7898L45.1922 15.8879C41.4145 18.7061 38.477 21.0339 35.0654 24.3862C22.0789 37.3025 13.6723 54.1112 11.1275 72.2498C9.66818 82.2574 10.0328 92.4469 12.2037 102.324C12.6571 104.465 13.1936 106.202 13.6982 108.26L14.4552 110.672C18.2655 121.954 22.8339 129.998 30.3761 139.127C30.2051 139.505 30.3332 139.353 29.9537 139.575C29.2984 139.458 29.4697 138.652 28.4196 138.902C24.6653 134.371 21.3978 129.458 18.6711 124.243L18.6473 124.07C18.2292 123.627 16.6069 120.045 16.3089 119.379C11.3288 108.131 8.79786 95.9514 8.88409 83.6501C8.98837 65.9582 14.5576 48.7309 24.8294 34.3258C26.5083 31.9785 29.2929 28.3419 31.3504 26.3114C31.6015 25.9836 32.1369 25.4447 32.4408 25.1227C35.5793 21.7605 39.9935 17.9318 43.7288 15.2578Z" fill="#6FACCD"/>
<path d="M18.6474 124.07C18.5858 123.631 18.48 123.321 18.6885 122.952L18.8794 122.873C19.1718 123.026 19.311 123.225 19.3451 123.549C19.0451 123.821 18.9278 123.933 18.6711 124.243L18.6474 124.07Z" fill="#6CAECE"/>
<path d="M12.8936 59.3269L13.1499 59.4731C13.695 60.3118 13.148 61.3182 12.4321 61.8566C12.3446 62.0603 12.4076 61.9722 12.2061 62.0952L12.0961 61.9824C12.1161 61.6664 12.7556 59.731 12.8936 59.3269Z" fill="#6CAECE"/>
<path d="M21.0681 127.641C21.4101 127.668 21.7652 127.673 22.0813 127.796L22.0532 127.983C21.6437 127.954 21.6492 128.117 21.2887 128.049L21.0681 127.641Z" fill="#76B2CF"/>
<path d="M13.5423 110.687C13.6295 110.816 13.6562 110.899 13.7206 111.042C13.6887 111.341 13.7524 111.225 13.55 111.415L13.4879 111.378C13.383 111.074 13.4523 111.063 13.5423 110.687Z" fill="#6CAECE"/>
<path d="M24.6204 116.401C23.3826 113.781 22.149 108.765 21.4937 105.937C18.0219 91.1523 18.1619 75.7482 21.9019 61.0289C22.7303 57.7827 23.9424 53.8177 25.2204 50.7173C25.3436 51.1392 25.7435 52.7105 25.7754 53.1101C19.3912 70.9815 18.637 90.3801 23.6141 108.693L23.6348 108.742L23.7317 109.121L24.2276 110.897C25.2568 114.291 27.2322 120.054 28.8982 123.205C28.5492 123.012 28.4176 122.932 28.1068 122.683L27.9542 122.709C27.7825 123.183 27.7837 123.397 27.663 123.791C26.6887 121.816 25.3154 118.636 24.6702 116.542L24.6204 116.401Z" fill="#6FACCD"/>
<path d="M24.6205 116.401C24.8049 115.809 24.524 115.445 24.9879 115.076C25.3959 115.367 25.6176 116.045 25.763 116.514L25.6861 116.698C25.4983 116.57 25.5793 116.617 25.4778 116.317L25.369 116.367L25.3868 116.538C25.4078 116.755 25.4082 116.668 25.3929 116.847C24.9162 116.866 25.3128 116.684 24.6703 116.543L24.6205 116.401Z" fill="#6CAECE"/>
<path d="M23.6346 108.743C23.5049 109 23.415 109.05 23.2089 109.261C22.4583 109.364 22.257 108.314 22.6005 108.043L22.6919 108.266C22.8308 108.018 22.7393 108.072 22.9399 107.969C23.4575 108.246 22.9163 108.366 23.6139 108.693L23.6346 108.743Z" fill="#6CAECE"/>
<path d="M20.9338 68.4268C21.3169 68.9532 21.4001 69.5574 20.8278 69.9715L20.6932 70.0703C20.1936 69.1311 20.7847 69.3128 20.9338 68.4268Z" fill="#69AACE"/>
<path d="M24.4937 113.485L24.72 113.642C24.8995 113.982 24.9232 113.999 24.8683 114.363L24.5888 114.557C24.2065 114.425 24.3632 114.54 24.1316 114.164C24.174 113.721 24.1376 113.877 24.4937 113.485Z" fill="#6CAECE"/>
<path d="M28.4196 138.902C29.4697 138.652 29.2983 139.458 29.9536 139.575C30.3331 139.353 30.205 139.505 30.3761 139.127C36.494 145.967 42.2849 151.298 50.2623 156.017C51.0259 156.468 53.4915 158.01 54.233 158.28C54.3123 158.513 54.3708 158.603 54.3332 158.843L54.0061 158.883C53.9603 159.117 53.9922 159.049 53.8667 159.232C52.6901 159.285 49.5937 157.178 48.5161 156.509C47.3341 155.862 45.2655 154.404 44.1337 153.602C38.0251 149.273 33.2619 144.545 28.4196 138.902Z" fill="#6CAECE"/>
<path d="M27.663 123.792C27.7837 123.398 27.7824 123.183 27.9541 122.709L28.1068 122.683C28.4175 122.932 28.5491 123.012 28.8981 123.206C31.4676 129.047 35.1759 134.717 39.0063 139.798C39.277 140.094 39.486 140.342 39.7355 140.655C39.4273 140.796 39.5226 140.684 39.3761 140.937C39.1121 141.07 38.9648 141.109 38.7648 141.313L38.4778 141.273L37.0607 139.48C33.6128 134.761 30.0004 129.172 27.663 123.792Z" fill="#6CAECE"/>
<path d="M37.0608 139.48C37.2374 139.354 37.3944 139.241 37.5778 139.124L37.6086 138.456C38.3134 139.06 38.1375 139.304 39.0064 139.798C39.2771 140.094 39.486 140.342 39.7356 140.655C39.4273 140.797 39.5227 140.685 39.3761 140.937C39.1121 141.07 38.9649 141.109 38.7649 141.313L38.4779 141.273L37.0608 139.48Z" fill="#76B2CF"/>
<path d="M68.8409 8.31408C69.4416 7.65583 73.5049 5.60918 74.4482 5.18066C74.108 5.7372 73.944 5.7466 73.3854 6.04994C73.6436 6.30096 73.7128 5.9394 73.999 6.33391C71.3858 8.56433 68.9759 10.654 66.7643 13.2906C66.328 13.8108 65.4764 14.7427 65.1413 15.279C64.8171 15.6287 64.6092 15.8928 64.3234 16.2655C45.9179 40.6517 40.4925 73.9324 44.5807 103.743C46.8424 120.235 52.2968 137.059 62.3207 150.513C64.0962 152.896 68.5936 158.35 71.0305 160.038C71.0793 160.966 70.7729 161.146 69.9627 161.179L69.8594 161.177C69.1898 160.652 67.1914 159.469 66.3161 158.855C63.4146 156.858 60.6815 154.627 58.1441 152.184C57.6567 151.722 57.1744 151.253 56.6974 150.779C55.5752 149.545 54.4477 148.373 53.3235 147.115C53.0055 147.622 53.4215 147.998 52.5587 148.008L52.4296 148.104C51.9702 147.719 49.4443 144.511 49.0289 143.962C33.4769 123.383 28.0296 95.3014 31.4193 70.0465C33.9026 51.5435 41.5706 33.0559 54.1087 19.124C56.4469 16.5259 59.8849 13.1468 62.6436 11.0313C63.3356 10.4387 64.2221 9.81046 64.9621 9.2582C65.1926 9.08592 65.3771 8.96255 65.6197 8.80727C66.1605 8.38455 67.1243 7.69866 67.6983 7.37281L67.8001 7.63475L67.9245 7.6658C68.192 8.14285 68.2202 8.15681 68.7036 8.3629L68.8409 8.31408Z" fill="#FDFEFD"/>
<path d="M62.6437 11.0306C63.4338 11.4016 63.3384 10.6876 63.9581 10.6226C63.9257 10.9177 63.9803 10.795 63.8201 11.0156L63.9675 11.1648C64.2407 11.13 64.5145 11.0995 64.7888 11.0732C52.4759 20.6277 43.9841 33.3852 38.4356 47.8972C37.8048 49.5471 37.1392 51.312 36.626 52.9964C35.9624 55.1326 35.3623 57.2881 34.8268 59.4599C34.6411 60.2225 33.5196 65.6636 33.4433 65.8001C33.2246 67.8726 32.8129 70.1044 32.5568 72.226C32.1226 75.8419 31.8779 79.4781 31.8237 83.1197C31.4601 104.742 37.9556 128.287 51.7105 145.2C52.24 145.851 52.7837 146.474 53.3235 147.115C53.0055 147.621 53.4215 147.997 52.5587 148.007L52.4296 148.103C51.9702 147.719 49.4443 144.51 49.0289 143.962C33.4769 123.382 28.0296 95.3006 31.4193 70.0457C33.9026 51.5428 41.5706 33.0551 54.1087 19.1232C56.4469 16.5251 59.8849 13.1461 62.6437 11.0306Z" fill="#6FACCD"/>
<path d="M32.9119 65.5195C33.0145 65.2533 32.9869 65.2332 33.1671 65.0425L33.2063 65.6004C33.2611 65.6479 33.3884 65.7641 33.4432 65.8004C33.17 66.1876 33.2678 66.1897 32.9316 66.2492C32.7348 66.0488 32.7019 65.6731 32.9119 65.5195Z" fill="#69AACE"/>
<path d="M64.9619 9.25757C65.1924 9.08529 65.3769 8.96192 65.6195 8.80664C65.9047 9.06572 66.4025 9.45046 66.5748 9.77536C65.9824 10.212 65.3869 10.6447 64.7886 11.0733C64.5143 11.0996 64.2405 11.1301 63.9672 11.1649L63.8198 11.0158C63.9801 10.7952 63.9255 10.9179 63.9578 10.6227C63.3382 10.6878 63.4336 11.4018 62.6434 11.0307C63.3354 10.4381 64.2219 9.80983 64.9619 9.25757Z" fill="#76B2CF"/>
<path d="M67.6982 7.37231L67.8 7.63425L67.9244 7.6653C68.192 8.14235 68.2202 8.15631 68.7036 8.3624L67.0555 9.44793L66.575 9.77549C66.4027 9.45059 65.9048 9.06586 65.6196 8.80677C66.1604 8.38405 67.1243 7.69816 67.6982 7.37231Z" fill="#69AACE"/>
<path d="M48.5162 156.509C49.5938 157.178 52.6901 159.285 53.8668 159.233C53.9923 159.049 53.9604 159.117 54.0062 158.883L54.3333 158.843C54.3709 158.603 54.3124 158.514 54.2331 158.28C54.944 158.645 57.094 159.687 57.6549 160.068L57.8809 160.193L58.5027 160.462C58.9859 160.655 61.7248 161.773 62.037 161.983L62.8982 162.326L62.9735 162.353C63.0599 162.897 63.0369 162.868 62.6297 163.239C62.6812 163.562 62.7874 163.546 62.9737 163.836C62.7194 163.835 62.8001 163.816 62.5637 163.89L62.6756 164.022C62.6418 164.521 62.3325 164.253 62.2723 164.788C62.5088 164.913 63.0892 164.983 63.3812 165.088C65.7512 165.927 68.2743 166.325 70.7264 166.875C71.6446 167.08 71.5288 166.793 72.407 167.352C72.5527 167.24 72.6671 167.156 72.82 167.054C73.0163 167.086 74.4471 167.277 74.4756 167.291L74.5311 167.471C74.7177 167.624 77.2032 167.602 77.6923 167.783C78.5683 168.107 78.7025 167.351 79.3798 167.244L79.4864 167.34L79.4041 167.673L79.5174 167.748C79.7181 167.733 79.8921 167.729 80.0934 167.726C80.1535 167.907 80.1616 167.921 80.2604 168.085C81.6584 168.226 83.1171 168.237 84.5237 168.291C84.9843 168.308 85.4592 168.268 85.9198 168.282C90.1137 168.406 94.3106 168.175 98.4646 167.666C98.4865 167.563 98.5093 167.459 98.5311 167.356C99.1466 167.245 100.509 167.714 100.981 167.379C100.911 167.214 100.925 167.299 100.933 167.128C101.414 166.991 101.892 167.141 102.268 167.093C103.036 166.982 103.827 166.755 104.588 166.576C106.512 166.139 108.422 165.887 110.298 165.257C112.123 164.643 114.066 164.242 115.892 163.622C116.049 163.569 116.27 163.285 116.427 163.162L116.526 163.082C116.701 163.204 116.606 163.143 116.811 163.265C117.232 163.138 117.371 163.054 117.781 163.144C115.882 164.021 111.396 165.284 109.314 165.815C91.5193 170.346 74.5637 169.368 57.3106 163.487C57.0487 163.365 56.7987 163.261 56.5312 163.15C55.1851 162.701 53.7187 162.061 52.4072 161.513C52.6458 161.325 52.8062 161.03 53.0121 160.781C53.2568 160.713 53.2539 160.732 53.4198 160.545C51.3764 159.442 48.7328 158.541 46.6868 157.273C46.9683 157.225 47.1931 157.191 47.4769 157.162C47.7347 157.335 48.9128 157.924 49.2257 157.868L49.3556 157.649C48.917 157 48.6813 157.476 48.5162 156.509Z" fill="#ABD2E3"/>
<path d="M56.5312 163.15C56.4748 163.002 56.4163 162.867 56.3539 162.72C55.8047 162.291 55.5452 162.774 55.2643 162.098C55.7298 161.938 56.226 162.013 56.6668 161.776C58.2331 162.364 60.591 163.195 62.1987 163.684L62.1423 163.766C61.8472 163.732 61.5785 163.7 61.2805 163.687L61.2389 163.745L61.4695 163.979C61.1012 164.097 61.08 164.114 60.7594 164.338C60.5272 164.153 57.8498 163.454 57.3106 163.487C57.0487 163.364 56.7988 163.261 56.5312 163.15Z" fill="#6FACCD"/>
<path d="M53.4198 160.545C53.8838 160.665 56.2637 161.542 56.6668 161.777C56.226 162.013 55.7298 161.938 55.2643 162.099C55.5452 162.774 55.8047 162.292 56.3539 162.721C56.4163 162.867 56.4748 163.002 56.5312 163.15C55.1851 162.701 53.7187 162.061 52.4072 161.513C52.6458 161.325 52.8062 161.03 53.0121 160.781C53.2568 160.713 53.2539 160.732 53.4198 160.545Z" fill="#76B2CF"/>
<path d="M58.5028 160.462C58.7891 161.06 59.2345 160.915 59.6311 161.304L59.405 161.524L59.4593 161.646L59.7999 161.681L59.8127 161.841L59.6374 161.953C59.3895 161.867 58.9461 161.929 58.9453 161.929C58.2914 161.589 56.6114 160.706 56.1959 160.165L56.2965 160.027C56.7393 159.908 57.1793 160.04 57.655 160.068L57.8809 160.192L58.5028 160.462Z" fill="#6FACCD"/>
<path d="M62.037 161.982L62.8982 162.325C62.516 162.772 62.5973 163.071 61.9119 163.066C61.4413 162.699 61.4602 162.942 60.9874 162.747L61.0305 162.605C61.3992 162.565 61.4894 162.524 61.8458 162.398C61.9125 162.262 61.9762 162.123 62.037 161.982Z" fill="#6CAECE"/>
<path d="M61.4693 163.979C61.5755 164.088 61.6796 164.2 61.7815 164.313L61.7321 164.43C61.3387 164.503 61.1612 164.428 60.7592 164.338C61.0798 164.114 61.101 164.098 61.4693 163.979Z" fill="#76B2CF"/>
<path d="M57.8502 6.42396C58.3501 6.31019 59.4545 5.89478 59.9993 5.72639C61.028 5.40843 62.1646 5.08381 63.1617 4.70259C63.2095 4.78133 63.2257 4.8612 63.248 4.95009C63.9173 5.29161 64.6527 5.11411 65.2766 4.78399L65.2476 4.49185L65.3931 4.52918C65.5853 4.78579 65.606 4.83793 65.8626 5.04012C66.1581 5.05361 67.0111 4.50667 67.3574 4.3152C67.7628 4.30988 67.9239 4.25205 68.106 4.63583C68.0138 4.93357 67.9734 4.93812 68.0161 5.22864C68.5251 5.35154 68.7408 5.00423 69.2186 5.1086L69.3098 5.3182C69.1646 5.48165 69.1872 5.48184 69.1257 5.69306C68.6545 5.93391 67.397 6.49481 66.8878 6.62512C66.3366 6.93985 65.3023 7.4377 64.7 7.69279L64.6583 7.74949C63.5505 8.29026 62.4294 8.96779 61.3941 9.46554C61.2789 9.53402 60.994 9.71627 60.8843 9.75018C60.2444 9.78836 60.1297 9.63592 59.834 9.13552L59.929 8.79428C58.9952 9.30172 57.7993 10.1671 57.0366 10.5531C57.2945 9.98001 58.3786 8.88583 59.0029 8.82401L59.1476 8.80739C59.1879 8.80349 59.2282 8.7996 59.2686 8.79571L59.343 8.62647L59.2755 8.45476C58.7604 8.38286 58.6098 8.69912 58.2359 8.95697C57.7477 9.29393 57.1643 9.12004 56.664 9.07483L54.9208 9.93689C54.8562 9.71712 54.6251 9.31587 54.5106 9.11054C54.5421 8.88289 54.5287 8.89305 54.4451 8.67443L53.928 8.91471C54.1106 8.63862 54.1766 8.573 54.2474 8.24278C54.0616 7.99955 54.1735 8.10602 53.8169 7.99841L55.0048 7.47692C55.8741 7.21755 56.9848 6.7558 57.8502 6.42396Z" fill="#DAEFF7"/>
<path d="M58.9881 6.52759C59.6142 7.1488 59.2244 7.23798 59.9904 7.52964L56.6641 9.07503L54.9209 9.93709C54.8564 9.71732 54.6253 9.31607 54.5107 9.11074C54.5423 8.88309 54.5289 8.89325 54.4453 8.67462C55.9316 7.90117 57.447 7.18499 58.9881 6.52759Z" fill="#6FACCD"/>
<path d="M63.8386 6.64893L64.1893 6.79157C64.1046 7.02454 64.1502 6.91846 63.9244 7.10878L63.9425 7.10308C63.9908 7.42276 63.9195 7.28961 64.1824 7.5052L64.4699 7.4371C64.5565 7.52837 64.6234 7.59314 64.7002 7.69314L64.6585 7.74984C63.5507 8.29061 62.4296 8.96815 61.3942 9.4659C61.279 9.53437 60.9942 9.71662 60.8845 9.75053C60.2446 9.78871 60.1299 9.63628 59.8342 9.13587L59.9292 8.79463L60.4081 8.49015C60.962 8.09212 63.186 6.96756 63.8386 6.64893Z" fill="#76B2CF"/>
<path d="M60.4081 8.4895C60.7627 8.82086 60.7771 8.70822 61.3029 8.88088L61.0328 9.22991L61.0787 9.36059C61.1354 9.37797 61.3534 9.4377 61.3942 9.46525C61.279 9.53372 60.9942 9.71597 60.8845 9.74988C60.2446 9.78806 60.1299 9.63563 59.8342 9.13522L59.9292 8.79398L60.4081 8.4895Z" fill="#6FACCD"/>
<path d="M58.9883 6.52745C59.7252 6.20274 60.4898 5.86169 61.2399 5.57431C61.7064 5.39557 61.7491 5.32985 62.1018 5.48541L62.1667 5.8728L62.2512 5.97461C62.555 5.99997 62.9811 5.98667 63.1854 6.17348L63.1496 6.25867C62.4251 6.5113 60.3974 7.42417 59.9906 7.5295C59.2246 7.23784 59.6143 7.14866 58.9883 6.52745Z" fill="#76B2CF"/>
<path d="M63.8385 6.64883C64.6574 6.23171 66.0166 5.40241 66.8882 5.63234C67.1005 5.84232 67.0533 5.72038 67.055 6.00159L66.812 6.33229L66.8879 6.62537C66.3366 6.94011 65.3023 7.43795 64.7001 7.69305C64.6233 7.59304 64.5564 7.52827 64.4698 7.437L64.1823 7.5051C63.9193 7.28951 63.9906 7.42266 63.9424 7.10298L63.9243 7.10868C64.1501 6.91836 64.1044 7.02444 64.1891 6.79148L63.8385 6.64883Z" fill="#69AACE"/>
<path d="M62.1017 5.48559C62.488 5.43402 62.449 5.37448 62.7258 5.52244L62.6473 5.70251L62.1666 5.87299L62.1017 5.48559Z" fill="#69AACE"/>
<path d="M63.0962 5.44882C63.6025 5.37379 63.9847 5.31833 64.3245 5.79433C63.9271 6.014 63.7633 5.9931 63.3518 5.87904C63.0982 5.63677 63.176 5.7778 63.0962 5.44882Z" fill="#6FACCD"/>
<path d="M58.1441 152.184C60.6815 154.626 63.4146 156.857 66.3161 158.854C67.1913 159.469 69.1897 160.651 69.8594 161.177L69.9626 161.178L70.3041 161.407C72.4372 162.541 74.0673 163.411 76.2923 164.351C76.2187 164.536 76.2505 164.472 76.1119 164.624C75.2087 164.466 75.4101 164.427 74.6675 164.092C74.5308 164.03 73.1979 164.36 72.8522 164.076C72.7468 163.99 72.4219 163.972 72.2774 163.966C71.6027 163.761 69.2392 162.312 68.4953 161.869C64.1355 159.1 61.4499 157.022 57.5815 153.477C57.5754 153.28 58.0356 152.342 58.1441 152.184Z" fill="#76B2CF"/>
<path d="M69.8594 161.177L69.9626 161.178L70.3042 161.407L70.1288 161.655C69.7368 161.84 69.9238 161.826 69.5549 161.795L69.4865 161.645C69.5797 161.405 69.6708 161.354 69.8594 161.177Z" fill="#6FACCD"/>
<path d="M64.9616 158.596C65.3439 158.603 65.8462 158.713 65.8475 159.176L65.692 159.096C65.5553 159.286 65.5653 159.274 65.3638 159.395C64.9914 159.398 65.1313 159.464 64.8948 159.277C64.8131 158.892 64.8368 159.015 64.9616 158.596Z" fill="#6FACCD"/>
<path d="M71.4766 162.345L71.7226 162.44C71.939 162.826 71.9909 163.084 71.7156 163.431C71.4861 163.421 71.5551 163.443 71.3665 163.341C71.226 163.04 71.2755 162.61 71.4766 162.345Z" fill="#6FACCD"/>
<path d="M59.0218 159.407C60.9488 160.285 62.6411 161.561 64.8266 162.473L64.6587 162.166C64.9929 162.01 65.0989 162 65.4669 161.926C65.2984 161.769 65.3363 161.863 65.3007 161.664L65.5849 161.411C66.2939 161.757 67.2589 162.246 67.9906 162.485C68.3824 162.456 68.3252 162.602 68.7176 162.467C68.6895 162.201 68.6173 162.103 68.4952 161.869C69.2391 162.312 71.6026 163.761 72.2773 163.966C72.7328 164.248 73.1179 164.201 73.3782 164.525L73.344 164.811C72.7899 165.193 72.0645 164.143 71.5621 163.96C71.1211 163.798 70.7543 164.459 70.4564 164.422C69.8507 164.345 68.765 163.429 68.2806 163.405C68.0498 163.64 68.134 163.494 68.1138 163.905L67.9406 163.999C67.3581 163.973 66.6445 163.683 66.0743 163.485C65.1949 163.247 63.8416 162.696 62.9734 162.353L62.8981 162.325L62.0369 161.983C61.7246 161.773 58.9858 160.655 58.5026 160.462L57.8807 160.192C58.3515 160.169 59.0231 160.272 59.2838 160.118C59.2688 159.687 59.2736 159.821 59.0218 159.407Z" fill="#DAEFF7"/>
<path d="M65.585 161.411C66.294 161.757 67.259 162.246 67.9907 162.485L68.0139 162.507C68.0431 162.657 68.0768 162.757 68.1454 162.893C67.0614 164.068 65.9875 163.117 64.8267 162.473L64.6588 162.166C64.993 162.01 65.099 162 65.467 161.926C65.2985 161.769 65.3364 161.863 65.3008 161.665L65.585 161.411Z" fill="#76B2CF"/>
<path d="M69.1261 5.6933C70.4144 5.17038 72.0548 4.49836 73.3912 4.14307C72.38 4.63987 68.5426 6.67674 67.6984 7.37241C67.1245 7.69826 66.1606 8.38415 65.6198 8.80687C65.3773 8.96215 65.1927 9.08551 64.9622 9.25779C64.9769 8.59489 65.3601 8.5644 65.2783 7.98488C64.9547 7.73169 65.0935 7.80586 64.6587 7.74973L64.7004 7.69303C65.3026 7.43794 66.3369 6.94009 66.8882 6.62536C67.3973 6.49505 68.6548 5.93415 69.1261 5.6933Z" fill="#F7FDFC"/>
<path d="M71.0305 160.038L71.8879 160.815L71.9843 160.803C72.7176 161.715 76.1532 163.871 77.2363 164.63C76.9809 164.688 76.5552 164.472 76.2924 164.351C74.0673 163.411 72.4372 162.541 70.3042 161.407L69.9626 161.178C70.7729 161.145 71.0792 160.965 71.0305 160.038Z" fill="#F7FDFC"/>
<path d="M62.9736 162.353C63.8417 162.696 65.1951 163.246 66.0744 163.485C65.6925 163.656 65.6372 163.916 65.2864 163.935L64.993 163.639C64.6833 163.769 64.3682 163.948 64.0515 163.896L63.8829 163.761C64.1601 163.619 64.209 163.646 64.5282 163.608C64.2832 163.467 64.3484 163.511 64.0479 163.461C63.5615 162.789 63.2129 163.31 62.9738 163.835C62.7874 163.546 62.6812 163.562 62.6298 163.239C63.0369 162.868 63.0599 162.896 62.9736 162.353Z" fill="#76B2CF"/>
<path d="M77.5218 3.83862C77.1457 4.14035 74.232 6.2512 73.999 6.33316C73.7128 5.93865 73.6436 6.30021 73.3854 6.0492C73.944 5.74585 74.108 5.73645 74.4482 5.17992C75.3692 4.68483 76.5364 4.23181 77.5218 3.83862Z" fill="#F7FDFC"/>
<path d="M43.9773 12.7929L43.9654 12.6598C43.7474 12.5869 43.741 12.5603 43.5585 12.413L43.6377 12.359L43.8724 12.4225C44.0421 12.043 44.1096 11.7175 44.5208 11.5898C44.661 11.8038 44.639 11.8949 44.6412 12.1409L44.9454 12.2607C44.7256 12.3864 44.1845 12.7147 43.9773 12.7929Z" fill="#76B2CF"/>
<path d="M100.653 6.64504C100.524 6.33998 100.382 6.28158 100.266 5.92201L100.366 5.82495C100.698 5.86009 101.011 5.90368 101.341 5.95136C101.93 6.18224 102.771 6.69537 103.342 7.02056L104.447 7.67938C104.675 7.6507 104.834 7.58906 105.05 7.51802C105.155 7.25561 105.144 7.26986 105.337 7.06405C105.534 7.09292 105.623 7.12797 105.804 7.21458L105.814 7.19493L105.728 7.13433L105.803 6.9819L105.731 6.86946C105.846 6.93641 106.369 7.24963 106.46 7.28372C106.568 7.05285 106.542 7.10347 106.696 6.90013C107.006 6.84486 107.277 6.81817 107.59 6.78569C108.662 7.27879 110.245 8.1851 111.182 8.56661C111.445 8.19527 111.578 7.76181 111.998 7.58393C112.346 7.60112 112.503 7.74918 112.797 7.94093C113.664 8.36565 114.356 8.81847 115.178 9.25345C115.257 8.66063 115.679 8.44571 116.203 8.39737C121.03 10.7334 125.541 13.3144 129.902 16.4604C132.114 18.056 134.016 19.7366 136.108 21.4376L136.147 21.468C139.427 24.6608 141.589 26.6305 144.603 30.2616C157.023 45.2603 163.899 64.0779 164.076 83.5504C164.277 105.875 155.644 127.375 140.059 143.361C138.111 145.346 136.061 147.227 133.918 148.998C132.771 149.939 131.4 150.919 130.312 151.839L128.847 152.87C124.122 156.215 119.063 159.062 113.752 161.366C112.316 161.953 110.869 162.51 109.41 163.037C108.981 163.19 106.665 164.026 106.345 163.994L106.214 163.863C106.326 163.553 106.409 163.524 106.754 163.42L106.969 163.228L106.93 163.11L106.269 162.882L106.16 162.581C105.402 162.905 101.537 164.549 100.998 164.525C101.297 164.226 101.215 164.396 101.297 164.022C101.037 163.835 100.284 163.774 99.9263 163.722C99.7458 163.848 99.6964 163.89 99.5369 164.042C99.2482 164.089 99.2653 164.076 98.9927 163.955C98.6746 164.029 96.9318 164.819 96.5272 164.995C97.381 164.324 98.6204 163.668 99.6129 162.916L99.8741 162.739C101.04 161.889 102.172 160.994 103.27 160.058C104.965 158.488 106.429 157.14 107.956 155.409C107.911 155.078 107.862 155.163 107.965 154.921L108.435 154.848C108.82 154.482 109.303 153.918 109.648 153.503C118.868 142.397 124.573 128.728 127.712 114.732C127.938 113.725 128.186 112.704 128.341 111.687C128.53 111.018 128.69 110.032 128.766 109.338C129.002 108.592 129.393 105.761 129.526 104.863C130.513 98.1225 130.997 91.3178 130.975 84.5056C130.96 58.2115 122.834 28.4154 103.821 9.42326C103.384 9.00025 102.934 8.61371 102.476 8.21445C101.904 7.67577 101.198 7.20613 100.653 6.64504Z" fill="#FDFEFD"/>
<path d="M100.653 6.64504C100.524 6.33998 100.382 6.28158 100.266 5.92201L100.366 5.82495C100.698 5.86009 101.011 5.90368 101.341 5.95136C101.93 6.18224 102.771 6.69537 103.342 7.02056L104.447 7.67938C104.675 7.6507 104.833 7.58906 105.05 7.51802C105.155 7.25561 105.144 7.26986 105.337 7.06405C105.534 7.09292 105.623 7.12797 105.804 7.21458L105.814 7.19493L105.728 7.13433L105.803 6.9819L105.731 6.86946C105.846 6.93641 106.369 7.24963 106.46 7.28372C107.17 7.78651 108.859 8.88875 109.428 9.37549C110.097 9.84389 111.033 10.5018 111.617 11.0522C113.011 12.0274 119.321 17.8374 120.091 19.0922C120.399 19.4217 120.699 19.7341 120.986 20.0825C121.708 20.9 125.044 24.8821 125.507 25.7702C131.294 33.2145 136.278 44.2261 139.108 53.0963C143.95 68.8341 145.119 85.4722 142.526 101.732C142.17 104.023 141.271 109.142 140.595 111.35C140.552 111.533 140.494 111.81 140.439 111.98C138.515 118.988 136.743 123.937 133.598 130.514C133.477 130.745 133.272 131.17 133.143 131.374C132.382 132.987 131.481 134.525 130.581 136.063C126.103 143.807 120.291 150.699 113.415 156.422C112.561 157.103 110.571 158.751 109.658 159.295L108.376 160.213L107.807 160.595C107.341 160.921 106.512 161.38 106.378 161.913C106.51 162.21 106.628 162.195 106.961 162.228C106.695 162.347 106.428 162.464 106.16 162.581C105.402 162.905 101.537 164.549 100.998 164.525C101.297 164.226 101.215 164.396 101.297 164.022C101.037 163.835 100.284 163.774 99.9263 163.722C99.7458 163.848 99.6964 163.89 99.5369 164.042C99.2482 164.089 99.2653 164.076 98.9927 163.955C98.6746 164.029 96.9318 164.819 96.5272 164.995C97.381 164.324 98.6204 163.668 99.6129 162.916L99.8741 162.739C101.04 161.889 102.172 160.994 103.27 160.058C104.965 158.488 106.429 157.14 107.956 155.409C107.911 155.078 107.862 155.163 107.965 154.921L108.435 154.848C108.82 154.482 109.303 153.918 109.648 153.503C118.868 142.397 124.573 128.728 127.712 114.732C127.938 113.725 128.186 112.704 128.341 111.687C128.53 111.018 128.69 110.032 128.766 109.338C129.002 108.592 129.393 105.761 129.526 104.863C130.513 98.1225 130.997 91.3178 130.975 84.5056C130.96 58.2115 122.834 28.4154 103.821 9.42326C103.384 9.00025 102.934 8.61371 102.476 8.21445C101.904 7.67577 101.198 7.20613 100.653 6.64504Z" fill="#FDFEFD"/>
<path d="M139.108 53.0962C143.95 68.8339 145.119 85.4721 142.526 101.732C142.17 104.023 141.27 109.142 140.595 111.35C140.552 111.532 140.494 111.81 140.439 111.98C138.515 118.988 136.743 123.937 133.598 130.514C133.477 130.744 133.272 131.17 133.143 131.374C132.382 132.987 131.481 134.525 130.581 136.063C126.102 143.807 120.291 150.699 113.415 156.422C113.231 156.169 113.073 156.138 112.779 156C112.635 155.707 112.774 155.515 112.885 155.121C115.784 152.693 118.483 150.037 120.956 147.177C135.142 130.842 141.696 109.176 142.44 87.7866C142.627 82.3982 142.233 78.2794 141.87 73.0584C141.799 72.7667 141.758 72.1697 141.726 71.849C140.953 66.4166 139.966 60.18 138.239 54.9734L138.407 54.5953L138.531 54.6208L138.879 55.1602L138.989 55.1539C139.118 54.7087 139.132 54.8828 139.001 54.465L139.092 54.5677L138.969 54.4532L138.532 54.4703L138.447 54.3473C138.483 53.8096 138.758 53.7498 138.882 53.168L139.108 53.0962Z" fill="#6FACCD"/>
<path d="M140.438 111.98L140.376 111.473C140.15 111.215 139.977 111.221 139.656 111.155C139.615 111.01 140.026 108.332 140.11 108.053L140.336 108.465C140.498 108.303 140.404 108.352 140.61 108.303C141.046 109.177 140.45 110.374 140.595 111.35C140.551 111.533 140.494 111.81 140.438 111.98Z" fill="#69AACE"/>
<path d="M133.143 131.374C132.782 130.768 133.198 131.037 132.899 130.562C132.812 130.834 132.587 131.028 132.311 131.069L132.273 130.905C132.422 130.388 132.554 130.05 133 129.739C133.34 129.735 133.184 129.691 133.479 129.907C133.581 130.148 133.572 130.252 133.598 130.514C133.477 130.745 133.272 131.17 133.143 131.374Z" fill="#69AACE"/>
<path d="M131.465 132.642C131.682 132.651 131.707 132.664 131.92 132.723L131.946 132.865L131.697 133.15C131.495 133.229 131.601 133.203 131.336 133.131L131.28 132.913L131.465 132.642Z" fill="#69AACE"/>
<path d="M125.507 25.7703C131.294 33.2146 136.278 44.2262 139.108 53.0964L138.882 53.1682C138.758 53.75 138.483 53.8099 138.447 54.3475L138.532 54.4706L138.969 54.4534L139.092 54.5679L139.001 54.4653C139.132 54.883 139.118 54.709 138.989 55.1541L138.879 55.1605L138.531 54.621L138.407 54.5956L138.239 54.9736C137.568 52.1078 135.924 48.1892 134.861 45.3653C134.466 44.3166 133.85 43.2033 133.45 42.1169C133.195 41.6545 132.923 40.9943 132.702 40.4953C131.739 38.7886 130.867 36.8431 129.845 35.0446C128.167 32.0909 126.639 29.7254 124.717 26.9599C124.906 26.169 124.837 26.4609 125.507 25.7703Z" fill="#6CAECE"/>
<path d="M132.702 40.4949C133.392 40.6747 133.51 41.5089 133.45 42.1164C133.195 41.654 132.923 40.9939 132.702 40.4949Z" fill="#69AACE"/>
<path d="M111.617 11.0522C113.011 12.0274 119.32 17.8374 120.091 19.0922C120.399 19.4218 120.699 19.7341 120.986 20.0825C121.708 20.9 125.044 24.8821 125.507 25.7702C124.837 26.4608 124.906 26.1689 124.717 26.9598C123.506 25.3869 122.417 23.8772 121.127 22.3322C119.377 20.2373 117.627 18.4056 115.728 16.4633L114.975 15.7696C113.762 14.6063 112.563 13.5843 111.275 12.5085L111.592 12.2862C111.783 12.3536 111.705 12.3466 111.821 12.3484C112.411 11.7329 111.689 11.9125 111.617 11.0522Z" fill="#76B2CF"/>
<path d="M114.975 15.7699L114.549 14.7349L114.641 14.5922C115.294 14.5667 115.446 15.0944 115.923 15.235C115.952 15.4851 115.851 16.2521 115.728 16.4635L114.975 15.7699Z" fill="#6FACCD"/>
<path d="M120.091 19.092C120.399 19.4216 120.699 19.734 120.986 20.0823C120.795 20.3816 120.732 20.3571 120.785 20.6095C120.99 20.7941 120.97 20.7201 121.052 20.9454C120.739 21.1721 120.907 21.1183 120.534 21.1284C119.833 20.7279 119.77 19.7112 120.091 19.092Z" fill="#6FACCD"/>
<path d="M107.419 159.259C107.634 159.197 107.523 159.205 107.757 159.291L107.725 159.224L107.8 159.313L107.637 159.56C107.765 159.888 107.871 159.896 108.225 159.977L108.376 160.213L107.807 160.595C107.341 160.921 106.512 161.38 106.378 161.913C106.51 162.21 106.628 162.195 106.961 162.228C106.695 162.346 106.428 162.464 106.16 162.581C105.402 162.905 101.537 164.549 100.998 164.525C101.297 164.226 101.215 164.396 101.297 164.022C101.037 163.835 100.284 163.774 99.9263 163.722C99.7458 163.848 99.6964 163.89 99.5369 164.042C99.2482 164.089 99.2653 164.076 98.9927 163.955C98.6746 164.029 96.9318 164.819 96.5272 164.995C97.381 164.324 98.6204 163.668 99.6129 162.916L99.8741 162.739C101.04 161.889 102.172 160.994 103.27 160.058C103.294 160.614 103.196 160.708 102.868 161.152L102.926 161.224C103.796 161.054 103.73 161.08 104.56 161.008C104.773 160.921 105.712 160.352 105.964 160.206C106.434 159.885 106.924 159.533 107.419 159.259Z" fill="#ABD2E3"/>
<path d="M99.8741 162.739C101.04 161.889 102.172 160.994 103.27 160.058C103.294 160.614 103.196 160.708 102.868 161.152L102.926 161.224C103.796 161.054 103.73 161.08 104.56 161.008C103.294 161.803 101.906 162.478 100.581 163.165C100.242 163.341 99.2026 163.794 98.9927 163.955C98.6746 164.029 96.9318 164.819 96.5272 164.995C97.381 164.324 98.6204 163.668 99.6129 162.916L99.8741 162.739Z" fill="#F7FDFC"/>
<path d="M107.419 159.259C107.634 159.197 107.523 159.205 107.757 159.291L107.725 159.224L107.8 159.313L107.637 159.56C107.765 159.888 107.871 159.896 108.225 159.977L108.376 160.213L107.807 160.595L107.722 160.513C106.114 161.026 107.139 161.114 105.964 160.206C106.434 159.885 106.924 159.533 107.419 159.259Z" fill="#76B2CF"/>
<path d="M102.45 162.368L102.597 162.441C102.588 162.808 102.673 163.182 102.438 163.455L101.991 163.405L101.853 163.45C101.482 163.35 101.564 163.452 101.42 163.228C101.561 163.032 102.138 162.713 102.45 162.368Z" fill="#76B2CF"/>
<path d="M105.731 6.86938C105.846 6.93634 106.369 7.24956 106.46 7.28365C107.17 7.78644 108.859 8.88868 109.428 9.37542C109.385 9.58018 109.417 9.51094 109.296 9.68541C108.885 9.85189 108.756 9.93775 108.522 10.338C107.23 9.4154 105.801 8.51516 104.447 7.67931C104.675 7.65063 104.833 7.58899 105.05 7.51795C105.154 7.25554 105.144 7.26979 105.337 7.06398C105.534 7.09285 105.623 7.1279 105.804 7.21451L105.814 7.19485L105.728 7.13426L105.803 6.98183L105.731 6.86938Z" fill="#76B2CF"/>
<path d="M112.885 155.121C112.774 155.515 112.635 155.707 112.779 156.001C113.073 156.138 113.231 156.17 113.415 156.422C112.561 157.103 110.571 158.751 109.658 159.295C109.563 159.069 109.586 159.187 109.593 158.939L109.884 158.711C109.917 158.411 109.914 158.555 109.777 158.233C109.624 158.128 109.498 158.005 109.368 157.872C110.566 156.988 111.739 156.071 112.885 155.121Z" fill="#76B2CF"/>
<path d="M109.428 9.37549C110.097 9.84389 111.033 10.5018 111.617 11.0522C111.69 11.9125 112.411 11.7329 111.821 12.3484C111.705 12.3466 111.784 12.3535 111.592 12.2862L111.275 12.5084C110.457 11.7907 109.395 11.0382 108.522 10.338C108.756 9.93782 108.885 9.85196 109.296 9.68548C109.417 9.51101 109.385 9.58025 109.428 9.37549Z" fill="#6FACCD"/>
<path d="M107.419 159.259C107.998 158.807 108.758 158.303 109.368 157.873C109.498 158.006 109.624 158.128 109.777 158.234C109.913 158.556 109.917 158.411 109.884 158.711L109.592 158.939C109.586 159.187 109.563 159.069 109.658 159.295L108.376 160.214L108.225 159.977C107.871 159.897 107.765 159.888 107.637 159.56L107.8 159.314L107.725 159.224L107.757 159.292C107.523 159.205 107.634 159.198 107.419 159.259Z" fill="#6FACCD"/>
<path d="M107.956 155.409C107.911 155.078 107.862 155.163 107.965 154.921L108.435 154.847L107.956 155.409Z" fill="#76B2CF"/>
<path d="M115.178 9.25354C115.256 8.66072 115.679 8.4458 116.202 8.39746C121.03 10.7335 125.541 13.3145 129.902 16.4605C132.114 18.0561 134.015 19.7367 136.108 21.4377L136.147 21.4681C139.427 24.6609 141.588 26.6306 144.603 30.2617C157.022 45.2604 163.898 64.078 164.076 83.5505C164.276 105.875 155.643 127.375 140.058 143.361C138.111 145.346 136.061 147.227 133.918 148.998C132.77 149.939 131.4 150.92 130.312 151.839L128.847 152.87C124.122 156.215 119.063 159.062 113.752 161.367C113.454 161.332 113.147 161.345 112.938 161.159C113.006 160.818 113.149 160.761 113.419 160.452L114.74 159.655C120.604 156.485 127.818 150.262 132.305 145.401L133.053 144.592C143.022 133.55 150.098 119.03 153.144 104.527C153.665 102.048 154.151 99.6118 154.44 97.095C155.23 92.7615 155.379 85.6043 155.254 81.2543C155.275 80.1217 155.132 78.5189 155.062 77.3766C154.811 73.2811 154.181 69.3316 153.377 65.3127C149.018 42.9861 136.004 23.2905 117.175 10.5257L116.301 9.9287C115.974 9.76003 115.504 9.4527 115.178 9.25354Z" fill="#FDFEFD"/>
<path d="M111.182 8.56642C111.446 8.19508 111.579 7.76162 111.998 7.58374C112.346 7.60093 112.504 7.74899 112.797 7.94074C113.664 8.36546 114.356 8.81828 115.178 9.25326C115.505 9.45241 115.975 9.75974 116.301 9.92841L117.175 10.5254C136.004 23.2902 149.018 42.9859 153.378 65.3124C154.181 69.3313 154.812 73.2808 155.062 77.3763C155.132 78.5187 155.275 80.1214 155.254 81.2541C155.38 85.6041 155.231 92.7612 154.44 97.0947C154.152 99.6115 153.665 102.048 153.144 104.526C150.098 119.03 143.022 133.55 133.054 144.591L132.305 145.4C127.818 150.262 120.605 156.485 114.74 159.655C113.471 159.422 114.402 159.087 114.33 158.349C116.075 157.4 119.101 155.277 120.703 154.068C129.309 147.59 136.506 139.43 141.859 130.083C153.892 108.924 157.108 83.8759 150.81 60.3628C145.034 38.9154 131.679 20.3112 112.333 9.18535C112.119 9.10795 111.42 8.69862 111.182 8.56642Z" fill="#6FACCD"/>
<path d="M116.301 9.92871L117.175 10.5257C117.035 10.7521 116.916 10.783 116.678 10.9034L116.427 10.7626C116.283 10.5343 116.139 10.3555 116.096 10.0932L116.301 9.92871Z" fill="#76B2CF"/>
<path d="M132.305 145.4C132.096 144.999 132.063 144.983 132.312 144.645C132.683 144.502 132.661 144.508 133.054 144.591L132.305 145.4Z" fill="#69AACE"/>
<path d="M145.372 43.9254C145.57 43.8408 145.465 43.8473 145.688 43.9309L145.644 44.1202L145.581 44.1892L145.444 44.1607L145.372 43.9254Z" fill="#6CAECE"/>
<path d="M111.177 160.156L111.718 160.336C111.765 160.511 111.797 160.648 111.833 160.826C112.007 160.934 112.047 160.967 112.235 161.047L113.419 160.452C113.149 160.76 113.006 160.817 112.938 161.158C113.147 161.344 113.454 161.332 113.752 161.366C112.316 161.953 110.869 162.51 109.41 163.037C108.981 163.19 106.664 164.025 106.344 163.994L106.214 163.863C106.326 163.552 106.409 163.524 106.754 163.419L106.969 163.228L106.93 163.11L106.268 162.882L106.16 162.581C106.428 162.464 106.695 162.346 106.961 162.228C107.426 161.982 108.061 161.706 108.549 161.478L111.177 160.156Z" fill="#DAEFF7"/>
<path d="M111.177 160.156L111.718 160.336C111.766 160.511 111.797 160.648 111.833 160.826C112.007 160.934 112.048 160.967 112.235 161.047C111.335 161.605 110.395 162.092 109.421 162.503C109.14 162.277 108.678 162.095 108.61 161.902L108.954 161.836C108.879 161.603 108.83 161.644 108.549 161.478L111.177 160.156Z" fill="#6CAECE"/>
<path d="M106.961 162.228C107.426 161.982 108.061 161.706 108.549 161.479C108.83 161.645 108.878 161.603 108.953 161.837L108.609 161.902C108.678 162.095 109.139 162.277 109.421 162.503C109.217 162.618 108.907 162.798 108.68 162.8C108.147 162.803 107.166 163.569 106.754 163.42L106.969 163.228L106.93 163.11L106.268 162.882L106.16 162.581C106.428 162.464 106.695 162.347 106.961 162.228Z" fill="#76B2CF"/>
<path d="M114.33 158.349C114.402 159.087 113.471 159.423 114.74 159.655L113.419 160.452L112.235 161.048C112.047 160.968 112.007 160.935 111.833 160.826C111.797 160.649 111.765 160.512 111.718 160.336L111.177 160.157C112.14 159.544 113.288 159 114.33 158.349Z" fill="#76B2CF"/>
<path d="M85.6757 3.51295C85.9388 3.14921 86.2133 2.75346 86.4877 2.40234L86.4725 45.1277L86.4849 59.2149C86.4839 61.4744 86.5324 63.9422 86.4792 66.1879V133.373L86.4754 155.296C86.4744 158.731 86.6074 163.093 86.4516 166.427C84.801 164.382 83.9339 162.66 82.95 160.281C82.7895 160.409 82.8142 160.459 82.6224 160.449C82.2301 160.431 82.0269 160.766 81.7268 160.889C81.1845 159.667 80.6014 157.988 80.1863 156.712L80.3886 156.48C80.5463 156.548 80.4589 156.503 80.6536 156.624C81.1152 156.206 80.9717 156.2 81.2709 155.655C81.1769 155.184 80.8103 154.052 80.665 153.546C80.2708 152.192 79.9011 150.831 79.5549 149.466C78.5591 145.413 77.7225 141.324 77.0469 137.207C71.4491 101.482 71.6039 65.0909 77.5053 29.4149L77.5411 29.189C78.0811 26.8503 78.4962 24.3613 79.0255 21.9877C79.7208 18.9128 80.5482 15.8691 81.5045 12.8651C81.0743 12.1305 81.4542 11.8658 81.9908 11.3816C83.0412 8.64885 83.9548 5.90596 85.6757 3.51295Z" fill="#FDFEFD"/>
<path d="M85.6757 3.51295C85.9387 3.1492 86.2132 2.75346 86.4877 2.40234L86.4725 45.1277L86.4848 59.2149C86.4839 61.4744 86.5323 63.9422 86.4791 66.1879C86.1866 65.8213 86.2816 59.8006 86.274 58.9263C86.2008 54.6363 86.1714 50.3456 86.1847 46.0551L86.1581 14.2154L86.1562 5.57365C86.16 5.05549 86.5086 3.56119 86.0859 3.30448L85.6757 3.51295Z" fill="#F7FDFC"/>
<path d="M80.1862 156.712L80.3884 156.48C80.5461 156.548 80.4587 156.503 80.6534 156.623C81.115 156.206 80.9716 156.2 81.2707 155.655C81.7712 157.123 82.3335 158.882 82.9498 160.281C82.7893 160.409 82.814 160.458 82.6222 160.449C82.23 160.431 82.0267 160.766 81.7266 160.889C81.1843 159.667 80.6012 157.988 80.1862 156.712Z" fill="#76B2CF"/>
<path d="M81.5045 12.8647C81.0743 12.1301 81.4541 11.8653 81.9907 11.3811C81.8473 11.8193 81.664 12.4493 81.5045 12.8647Z" fill="#76B2CF"/>
<path d="M87.8333 2.44678C88.5066 3.37513 89.0185 4.08296 89.6035 5.07029L89.6662 4.61556L89.7849 4.59096C90.0727 4.86752 90.1876 5.35834 90.256 5.74753L90.0613 5.92998C95.1708 17.2829 97.5584 32.287 99.0514 44.6544C101.146 62.7934 101.807 81.0695 101.028 99.3124C100.554 113.38 99.0618 127.395 96.5612 141.246C95.299 148.035 93.6114 155.057 90.899 161.437C90.0727 163.38 89.1648 164.839 87.8722 166.485L87.8333 2.44678Z" fill="#FDFEFD"/>
<path d="M89.6038 5.07039L89.6664 4.61566L89.7851 4.59106C90.0729 4.86762 90.1878 5.35844 90.2562 5.74764L90.0615 5.93008C89.8716 5.61638 89.7633 5.40146 89.6038 5.07039Z" fill="#76B2CF"/>
<path d="M92.6551 8.53568C92.411 7.351 90.5305 3.87141 89.8145 2.83374C90.8686 3.50804 91.6531 4.12337 92.618 4.89777L92.6684 4.95086C93.1185 5.39685 94.5365 6.8862 94.8955 7.17283C95.1965 6.78696 94.8128 7.19011 94.8261 6.72959C95.2469 6.75248 95.2051 6.57204 95.3333 6.22254L95.471 6.19576C95.8309 6.6672 95.9231 6.66501 96.4103 6.98668L96.4616 7.0241C97.3381 7.91399 98.908 10.1265 99.6061 11.2123C99.2528 11.0342 98.9166 10.819 98.5329 10.7911C98.286 11.0561 98.4493 11.6378 98.5025 12.0006C98.6421 12.2287 98.9289 12.7285 99.0828 12.9134C104.231 21.5375 107.883 31.0841 110.381 40.8007C110.966 43.0998 111.516 45.4078 112.029 47.724C112.233 48.6443 112.493 50.1872 112.736 51.0323C113.174 53.4374 113.57 55.8497 113.925 58.2683C114.089 59.3924 114.321 61.5597 114.543 62.5697L114.546 62.6541C114.614 64.3626 115.014 66.946 115.172 68.7936C115.541 73.0872 115.765 77.3922 115.841 81.701C116.267 105.483 112.039 136.032 99.1702 156.312C96.6895 159.801 93.9372 163.553 90.1525 165.767C93.828 159.718 95.6097 152.281 97.133 145.43C97.3866 144.293 98.0856 141.258 98.1578 140.168L98.2632 139.872C103.412 108.457 104.148 76.4769 100.45 44.8583C99.1778 33.8136 96.9687 20.3335 93.2325 9.99949C93.0445 9.40534 92.9153 9.10257 92.6551 8.53568Z" fill="#FDFEFD"/>
<path d="M94.8955 7.17263C95.1965 6.78676 94.8128 7.18992 94.8261 6.7294C95.2469 6.75228 95.2051 6.57184 95.3333 6.22234L95.471 6.19556C95.8309 6.667 95.9231 6.66481 96.4103 6.98648L96.4616 7.0239C97.3382 7.91379 98.908 10.1263 99.6061 11.2121C99.2528 11.034 98.9166 10.8188 98.5329 10.7909C98.286 11.0559 98.4493 11.6376 98.5025 12.0004C97.4018 10.565 96.7902 9.46602 95.5204 7.9703C95.3067 7.71378 95.0997 7.4377 94.8955 7.17263Z" fill="#6CAECE"/>
<path d="M94.8955 7.17263C95.1965 6.78676 94.8128 7.18992 94.8261 6.7294C95.2469 6.75228 95.2051 6.57184 95.3333 6.22234L95.471 6.19556C95.8309 6.667 95.9231 6.66481 96.4103 6.98648L96.4616 7.0239C95.9839 7.88796 95.8765 7.4546 95.7198 7.86336L95.5204 7.9703C95.3067 7.71378 95.0997 7.4377 94.8955 7.17263Z" fill="#76B2CF"/>
<path d="M83.3658 3.5593C83.6374 3.31475 84.061 3.07304 84.3801 2.87427C84.1208 3.30905 83.6203 4.20568 83.344 4.58168C82.8815 5.6579 82.3031 6.72605 81.8804 7.80978C78.0599 17.6005 76.0732 28.3847 74.6156 38.7584C70.6711 68.5505 70.5809 98.7264 74.3475 128.542C75.1883 135.271 76.3806 141.951 77.9193 148.555C78.4691 150.884 79.2998 154.524 80.1861 156.712C80.6012 157.988 81.1843 159.667 81.7266 160.889C81.814 161.11 82.0352 161.627 82.0913 161.832C82.8302 163.187 83.3525 164.48 84.1959 165.805C83.0353 164.983 81.7617 164.147 80.7911 163.115C80.6724 163.039 80.2034 162.588 80.071 162.465C78.841 161.159 77.9786 160.141 76.8715 158.726L76.2989 157.897C73.6199 154.297 72.4278 151.466 70.3935 147.726C70.1164 146.798 69.0128 144.602 68.6033 143.551C67.836 141.582 67.0997 139.642 66.3995 137.644C66.0106 136.425 65.6141 135.207 65.2102 133.992C62.9853 126.16 61.5187 119.875 60.3664 111.724C60.3363 111.512 60.2894 111.312 60.2449 111.102C60.2351 110.604 60.057 109.461 59.9876 108.923C59.8048 107.527 59.6322 106.131 59.4696 104.733C59.1029 101.348 58.8364 97.9514 58.6703 94.5504C57.867 79.5588 58.9215 64.5257 61.8096 49.7933L61.9618 49.0484C64.8236 35.8974 68.9886 21.9832 76.6495 10.7486C78.4051 8.17391 80.7949 5.33205 83.3658 3.5593Z" fill="#FDFEFD"/>
<path d="M82.0914 161.832C82.8303 163.187 83.3527 164.481 84.196 165.805C83.0355 164.983 81.7619 164.147 80.7913 163.115C81.3972 163.247 81.5112 163.381 82.0155 163.758L82.1532 163.728L82.2842 163.507L82.4599 163.48C82.7239 163.162 82.1152 162.467 82.0914 161.832Z" fill="#DAEFF7"/>
<path d="M83.3661 3.5593C83.6377 3.31475 84.0613 3.07304 84.3804 2.87427C84.1211 3.30905 83.6206 4.20568 83.3442 4.58168C83.4639 4.08469 83.784 3.93463 83.3661 3.5593Z" fill="#DAEFF7"/>
<path d="M76.88 5.98349C77.1995 5.95794 77.4765 5.88519 77.7289 6.04978C77.8852 6.30706 77.8307 6.6122 77.8222 6.92998C77.6268 7.17169 77.4063 7.42858 77.2321 7.68292L77.1567 7.74703C71.9923 14.4035 68.1336 22.9167 65.4438 30.8956C57.1542 55.4851 55.3219 82.762 58.5052 108.441C59.9743 120.293 62.841 133.374 67.4802 144.399C67.8685 143.735 67.2857 143.318 67.7437 143C68.7449 143.678 69.5178 147.164 70.3935 147.726C72.4278 151.466 73.6199 154.298 76.299 157.897L76.8716 158.726C77.9786 160.141 78.841 161.159 80.0711 162.465C79.877 163.161 80.4293 163.823 80.1176 164.338C80.3932 164.618 80.6259 164.849 80.9194 165.109L79.2116 164.244C79.0134 164.378 78.9956 164.38 78.7692 164.463C78.1429 164.351 77.8466 164.046 77.7918 163.412C77.5263 163.237 77.2593 163.044 76.9983 162.86C76.3676 162.606 74.2337 160.921 73.635 160.459L72.9378 159.914C72.3931 159.375 71.3975 158.596 70.7657 158.006C69.1033 156.444 67.5308 154.789 66.0557 153.048C55.77 140.919 49.43 124.201 46.7602 108.636C46.2494 105.729 45.8293 102.806 45.5006 99.8737C45.3363 98.3751 45.266 96.5991 45.0544 95.165L45.0426 95.0881C44.7825 94.9077 44.6058 94.5382 44.6359 94.2286C44.7638 92.9161 44.3144 90.0004 44.7163 88.8494C44.7934 88.0374 44.6529 85.2452 44.6618 84.2175C44.6917 80.8161 44.842 77.4168 45.1124 74.0261C46.5019 57.0069 51.1607 40.2797 59.7664 25.4635C61.0142 23.3152 62.399 21.3471 63.7654 19.2839C63.9056 18.461 63.8931 18.4542 64.6429 18.0711C64.7491 18.0082 66.0686 16.3074 66.2353 16.091C67.5161 14.4283 68.8407 13.015 70.2943 11.5072L70.4032 11.4248C72.6094 9.18509 74.3071 7.7797 76.88 5.98349Z" fill="#FDFEFD"/>
<path d="M67.4802 144.399C67.8685 143.735 67.2857 143.318 67.7437 143C68.7449 143.678 69.5178 147.164 70.3935 147.727C72.4278 151.467 73.6199 154.298 76.299 157.897C75.9613 158.273 75.6632 158.29 75.1715 158.215L74.9461 158.351C72.0875 154.317 69.3284 149.011 67.4802 144.399Z" fill="#6CAECE"/>
<path d="M76.2992 157.897L76.8718 158.726C77.9788 160.141 78.8412 161.16 80.0713 162.465C79.8772 163.162 80.4295 163.823 80.1178 164.338C80.3934 164.618 80.6261 164.849 80.9196 165.109L79.2118 164.244C79.0136 164.378 78.9958 164.38 78.7694 164.464C78.1431 164.352 77.8468 164.047 77.792 163.412C77.5265 163.238 77.2595 163.045 76.9985 162.86C77.3236 162.916 77.6052 163.014 77.89 162.884C78.0684 162.566 78.0071 162.634 77.9869 162.205C77.3876 161.5 76.6638 160.692 76.1389 159.946C75.6952 159.389 75.3437 158.939 74.9463 158.351L75.1717 158.215C75.6634 158.29 75.9615 158.273 76.2992 157.897Z" fill="#76B2CF"/>
<path d="M77.9869 162.205C78.6808 162.924 79.3764 163.67 80.1178 164.338C80.3934 164.618 80.6261 164.849 80.9196 165.109L79.2118 164.244C79.0136 164.378 78.9958 164.379 78.7694 164.463C78.1431 164.351 77.8468 164.046 77.792 163.412C77.5265 163.237 77.2595 163.044 76.9985 162.86C77.3236 162.916 77.6052 163.014 77.89 162.884C78.0684 162.565 78.0071 162.634 77.9869 162.205Z" fill="#F7FDFC"/>
<path d="M77.7921 163.412C78.139 163.615 78.9142 164.035 79.2119 164.244C79.0136 164.378 78.9959 164.38 78.7695 164.464C78.1432 164.352 77.8469 164.047 77.7921 163.412Z" fill="#76B2CF"/>
<path d="M76.2992 157.897L76.8718 158.726C76.8276 158.903 76.7876 159.066 76.7485 159.244C76.5082 159.465 76.4735 159.46 76.178 159.581L76.1419 159.51C76.0976 159.726 76.1072 159.724 76.1389 159.946C75.6952 159.389 75.3437 158.939 74.9463 158.351L75.1717 158.215C75.6634 158.29 75.9615 158.273 76.2992 157.897Z" fill="#6FACCD"/>
<path d="M45.0426 95.0883C44.7825 94.9079 44.6058 94.5384 44.6359 94.2288C44.7638 92.9163 44.3144 90.0007 44.7163 88.8496C44.8188 90.8507 44.9921 93.1072 45.0426 95.0883Z" fill="#69AACE"/>
<path d="M63.7654 19.2838C63.9056 18.461 63.8931 18.4542 64.6429 18.071C64.4085 18.4062 64.0164 19.0038 63.7654 19.2838Z" fill="#76B2CF"/>
<path d="M95.4711 5.83085C95.4967 5.39446 95.7133 5.23196 96.1425 5.1499C97.3515 5.90987 98.3373 6.58075 99.4666 7.45887C99.9129 7.80542 100.872 8.6558 101.226 8.89418C101.664 9.29658 102.576 10.186 103.007 10.5143C103.217 10.7212 104.008 11.475 104.141 11.662L104.495 11.9956C104.931 12.4678 108.521 16.6196 108.57 16.6457C108.948 16.8358 109.138 16.8869 109.383 17.2131C109.456 17.4969 109.445 17.4916 109.423 17.7881C112.979 22.7766 115.651 27.0119 118.314 32.6173C119.147 34.3705 119.935 36.1446 120.677 37.9381C120.845 38.3436 121.733 40.682 121.865 40.8686C122.229 40.8783 122.062 40.8242 122.369 41.0767C122.457 41.3949 122.547 42.1491 122.447 42.4517L122.484 42.61C122.618 43.1753 123.141 44.5557 123.359 45.1906C123.812 46.5348 124.239 47.8876 124.641 49.2482C125.923 53.6378 126.958 58.0957 127.743 62.601C132.293 88.5542 128.72 120.749 115.01 143.56C112.322 148.093 109.126 152.305 105.485 156.115C104.22 157.412 102.453 158.798 101.404 159.919L101.248 159.994L100.066 160.929C99.816 161.114 98.6479 161.957 98.4997 162.118L98.4038 162.116C97.6982 162.173 97.6279 162.291 97.0381 162.388C97.0799 161.9 97.2926 161.608 97.304 161.1C98.3221 159.753 99.3023 158.525 100.247 157.122C102.108 154.327 103.424 151.822 104.942 148.818L105.097 148.389C105.218 148.175 105.352 147.9 105.455 147.674C114.048 128.71 117.35 104.965 117.252 84.2569C117.22 76.1685 116.662 68.0906 115.581 60.0746C115.057 56.1468 114.389 52.2395 113.578 48.3607C113.394 47.4651 112.961 45.2001 112.671 44.3966L112.559 44.4824C112.511 44.2365 112.524 44.1245 112.343 43.9632C111.897 44.0697 111.964 44.3615 111.572 44.4084C111.151 44.0955 110.964 42.261 111.574 41.9049C111.872 41.9552 111.968 42.0992 112.186 42.3138C111.577 39.6769 110.224 34.8599 109.288 32.3361C109.251 32.1127 109.096 31.7032 109.016 31.4704C108.704 30.3897 107.933 28.3256 107.498 27.2375C106.093 23.715 103.939 18.1775 101.882 14.999C101.029 14.6754 100.822 14.1087 100.822 13.2245L100.76 13.1165C100.611 12.7143 99.8797 11.6344 99.6062 11.2121C98.9081 10.1263 97.3382 7.91378 96.4616 7.02389L96.4103 6.98647C96.2166 6.67601 95.7256 6.1322 95.4711 5.83085Z" fill="#FDFEFD"/>
<path d="M112.671 44.3967L112.559 44.4826C112.511 44.2366 112.524 44.1246 112.343 43.9634C111.898 44.0698 111.964 44.3617 111.572 44.4085C111.151 44.0957 110.964 42.2612 111.574 41.905C111.872 41.9554 111.968 42.0993 112.186 42.314C112.348 42.902 112.596 43.7955 112.671 44.3967Z" fill="#69AACE"/>
<path d="M100.822 13.2244C101.13 13.6862 101.639 14.5021 101.882 14.9988C101.029 14.6753 100.822 14.1086 100.822 13.2244Z" fill="#69AACE"/>
<path d="M121.865 40.8687C122.229 40.8784 122.062 40.8243 122.369 41.0768C122.457 41.395 122.547 42.1492 122.447 42.4518C122.182 41.8865 122.055 41.4625 121.865 40.8687Z" fill="#69AACE"/>
<path d="M108.57 16.6458C108.948 16.8359 109.138 16.887 109.383 17.2131C109.456 17.497 109.445 17.4917 109.424 17.7882C109.059 17.3524 108.883 17.129 108.57 16.6458Z" fill="#76B2CF"/>
<path d="M122.277 8.78857C123.193 9.20294 124.113 9.6136 125.019 10.0505C165.599 29.6109 184.379 76.1715 165.525 117.737C159.666 130.328 150.783 141.274 139.668 149.601C138.227 150.693 134.48 153.384 132.947 154.213L132.694 154.396C131.582 155.004 130.509 155.687 129.399 156.303C127.159 157.545 124.865 158.69 122.526 159.733C122.157 159.689 121.633 159.75 121.431 159.627C121.437 159.359 121.729 159.064 121.911 158.834C122.118 158.664 124.318 157.418 124.707 157.188C126.221 156.284 127.702 155.324 129.144 154.311C129.151 154.203 129.127 154.137 129.106 154.027C128.864 153.907 128.913 153.964 128.741 153.781L128.813 153.636L129.274 153.575L129.279 153.435C128.983 153.224 128.962 153.214 128.847 152.87L130.312 151.839C130.46 151.819 130.577 151.798 130.721 151.752L130.754 151.868L130.535 152.146C130.717 152.216 130.642 152.196 130.856 152.166L130.982 152.312L130.971 152.453L130.541 152.602C130.786 152.583 130.858 152.586 131.091 152.52L131.348 152.695C132.495 151.998 134.668 150.129 135.714 149.238C143.205 142.873 149.508 135.232 154.333 126.668C165.584 106.665 168.419 83.0083 162.212 60.9131C156.148 39.1197 141.591 20.6717 121.806 9.70468C122.372 9.5701 122.236 9.29307 122.277 8.78857Z" fill="#FDFEFD"/>
<path d="M130.312 151.839C130.46 151.819 130.577 151.798 130.721 151.752L130.754 151.868L130.535 152.145C130.717 152.216 130.642 152.196 130.856 152.166L130.982 152.312L130.971 152.453L130.542 152.602C130.787 152.583 130.858 152.586 131.091 152.52L131.348 152.694C130.732 153.199 129.817 153.872 129.144 154.311C129.151 154.202 129.127 154.137 129.106 154.027C128.864 153.907 128.913 153.964 128.741 153.781L128.813 153.635L129.274 153.575L129.279 153.435C128.983 153.224 128.962 153.214 128.847 152.87L130.312 151.839Z" fill="#76B2CF"/>
<path d="M104.222 5.36531C104.508 5.24346 104.66 5.01249 105.103 5.02636C105.281 5.03186 105.375 4.83698 105.499 4.68692C106.152 4.28462 107.171 4.89805 107.953 5.11325C108.52 5.06026 109.496 4.86785 110.014 5.02787C110.007 5.20224 110.029 5.11401 109.86 5.27965C110.329 5.66029 110.582 5.04146 111.475 5.37319C111.13 5.85147 111.045 5.7717 110.568 6.06013C111.547 6.40079 112.484 6.83586 113.392 7.15316C113.91 7.3735 114.569 7.67637 115.086 7.85976C115.456 8.04201 115.828 8.22122 116.202 8.39739C115.679 8.44573 115.256 8.66066 115.178 9.25347C114.356 8.8185 113.664 8.36567 112.797 7.94096C112.503 7.74921 112.346 7.60115 111.998 7.58396C111.578 7.76184 111.445 8.19529 111.182 8.56663C110.245 8.18513 108.662 7.27881 107.589 6.78572C106.792 6.37126 105.103 5.72716 104.222 5.36531Z" fill="#ABD2E3"/>
<path d="M107.953 5.11329C108.52 5.06029 109.497 4.86788 110.014 5.02791C110.008 5.20228 110.029 5.11405 109.86 5.27968C110.33 5.66033 110.582 5.04149 111.475 5.37323C111.13 5.85151 111.046 5.77173 110.568 6.06016C109.982 5.79462 108.585 5.33229 107.953 5.11329Z" fill="#76B2CF"/>
<path d="M105.823 5.00929C105.944 5.0071 107.965 5.47265 108.077 5.55471L108.02 5.66355C107.746 5.80895 107.608 5.81493 107.308 5.86812L107.348 5.94799L107.313 6.15493C106.835 6.07953 106.556 5.89652 106.307 5.47769C105.918 5.45537 105.607 5.45955 105.216 5.46677L105.167 5.37037C105.47 5.12306 105.453 5.12961 105.823 5.00929Z" fill="#6FACCD"/>
<path d="M114.229 6.04388C113.444 5.7451 111.709 5.12996 111.04 4.77752C111.134 4.57789 111.179 4.55206 111.324 4.37417L111.499 4.32935C111.736 4.47608 112.744 5.19397 112.843 5.23158C114.001 5.67387 115.296 6.08139 116.471 6.48531C118.44 7.16313 120.378 7.93174 122.277 8.78858C122.236 9.29307 122.372 9.5701 121.806 9.70468C120.071 8.87244 118.337 7.9267 116.559 7.07376L114.229 6.04388Z" fill="#DAEFF7"/>
<path d="M122.526 159.733C122.229 159.921 120.899 160.474 120.554 160.613C119.171 161.171 117.776 161.697 116.371 162.191C114.813 162.742 113.306 163.228 111.843 164.02C111.537 164.185 111.512 164.366 111.192 164.088L111.178 163.798L111.146 163.81C114.752 162.543 118.519 160.574 121.911 158.833C121.729 159.064 121.437 159.359 121.431 159.627C121.633 159.75 122.157 159.689 122.526 159.733Z" fill="#DAEFF7"/>
<path d="M116.259 78.9729C116.384 79.0099 116.472 79.034 116.575 79.1191C116.716 79.2358 116.761 85.7594 116.747 86.371C116.716 87.6788 116.64 88.9638 116.661 90.2744C116.665 90.489 116.591 90.6951 116.617 90.905C116.636 91.056 116.665 90.9468 116.552 91.1206C116.633 91.49 116.719 92.0134 116.616 92.3733L116.433 92.2983C116.366 92.153 116.327 92.0219 116.296 91.8642C116.084 90.7835 116.011 79.3295 116.259 78.9729Z" fill="#69AACE"/>
<path d="M77.5051 29.4149C77.2716 29.4614 77.2832 29.4688 77.0824 29.6035C76.9311 30.0507 76.9603 30.1603 76.4939 30.2677C76.5121 30.0194 76.5233 30.1059 76.4613 29.8657L76.2352 29.8867C76.2845 29.5476 76.3977 28.4588 76.567 28.2528L76.6773 28.292L76.7332 28.5697C77.169 27.5992 76.8685 26.7988 76.9905 25.7958C77.0142 25.6008 77.4075 24.9987 77.5195 24.7408L77.5715 24.6194L77.7529 24.7221C77.8718 24.564 77.8562 24.5714 78.0022 24.4402C78.188 25.8669 77.0077 28.2177 77.5409 29.189L77.5051 29.4149Z" fill="#69AACE"/>
<path d="M97.3041 161.1C97.2927 161.608 97.08 161.9 97.0382 162.389C97.628 162.291 97.6983 162.173 98.4039 162.116C97.3165 163.07 94.7266 164.469 93.3799 165.147C93.9013 164.599 94.5547 164.055 95.0951 163.502C95.8615 162.717 96.5747 161.918 97.3041 161.1Z" fill="#F7FDFC"/>
<path d="M128.341 111.688C127.717 111.934 128.049 112.382 127.686 112.769C127.35 112.477 127.723 112.772 127.474 112.208L127.301 112.433L127.173 112.27C127.361 111.573 127.208 109.984 127.879 109.294L128.08 109.551L128.187 109.523C128.217 109.285 128.21 109.254 128.303 109.037L128.385 109.082L128.408 109.772C128.801 109.69 128.306 109.623 128.766 109.338C128.689 110.032 128.53 111.018 128.341 111.688Z" fill="#69AACE"/>
<path d="M101.177 4.34639L101.119 4.24097C101.476 4.24999 103.89 5.18024 104.222 5.36525C105.103 5.72709 106.792 6.37119 107.59 6.78565C107.277 6.81813 107.006 6.84482 106.696 6.90009C106.542 7.10343 106.568 7.05281 106.46 7.28369C106.369 7.24959 105.846 6.93637 105.731 6.86942C105.249 6.5411 104.985 6.39456 104.474 6.12826C104.016 5.82824 103.615 5.62671 103.13 5.37608C102.658 5.06438 101.696 4.57451 101.177 4.34639Z" fill="#DAEFF7"/>
<path d="M76.8801 5.98396C78.068 5.21317 79.8835 4.06505 81.174 3.48828C79.8544 4.70801 78.9987 5.56608 77.8223 6.93045C77.8308 6.61268 77.8853 6.30753 77.729 6.05025C77.4766 5.88566 77.1996 5.95841 76.8801 5.98396Z" fill="#DAEFF7"/>
<path d="M98.1578 140.168C97.4759 140.682 97.9241 141.88 97.4303 142.168C97.0304 141.931 96.9155 141.7 96.8291 141.26C97.0114 140.674 97.1577 139.339 97.4759 138.883C97.5499 139.089 97.5006 138.987 97.6288 139.187C97.8918 139.07 97.7912 139.056 98.0115 139.094L98.0884 139.62L98.0865 139.569L98.1844 139.607L98.2632 139.871L98.1578 140.168Z" fill="#69AACE"/>
<path d="M87.5686 163.338C87.7376 163.891 87.6721 165.652 87.6521 166.262L87.541 166.347C87.1469 166.072 87.353 165.864 86.9921 165.579C87.1279 165.921 87.1127 165.75 87.0472 166.108L86.9617 166.088C86.7623 165.787 86.8373 165.825 86.8772 165.364L86.7661 165.316C86.5723 165.66 86.8477 165.92 86.672 166.308L86.5305 166.276C86.4754 165.839 86.672 165.003 86.7157 164.532C86.7547 164.121 86.9475 163.973 87.2314 163.662L87.2447 163.722C87.4005 163.667 87.4527 163.512 87.5686 163.338Z" fill="#76B2CF"/>
<path d="M97.4418 4.37151L96.9119 4.02382L96.9138 3.92847C97.7077 4.12231 100.62 5.48753 101.341 5.95109C101.011 5.90341 100.698 5.85982 100.366 5.82468L100.266 5.92174C100.382 6.28131 100.524 6.33972 100.653 6.64477C99.7677 6.04986 98.8066 5.33216 97.93 4.70762L97.4418 4.37151Z" fill="#F7FDFC"/>
<path d="M100.066 160.929L100.248 161.12C100.213 161.405 100.224 161.424 100.357 161.679L100.611 161.755L100.599 161.864C99.8729 162.394 100.227 162.178 99.8739 162.739L99.6127 162.917C99.3743 162.891 99.38 162.975 99.1141 162.885L99.1929 162.865C99.06 162.703 99.04 162.702 98.8615 162.592L98.8434 162.361L98.4816 162.558L98.4009 162.47C98.5177 162.249 98.4854 162.366 98.4996 162.118C98.6478 161.958 99.816 161.114 100.066 160.929Z" fill="#76B2CF"/>
<path d="M61.8098 49.7935C61.653 49.6071 61.7408 49.6862 61.5487 49.5532L61.5028 49.627C60.5868 49.0893 61.0276 48.1389 61.1777 47.1919L61.2789 47.1721C61.3808 47.4481 61.2967 47.3426 61.5317 47.5059C62.2257 47.471 61.5193 47.3925 62.0075 47.2518L62.0592 47.3693C61.8162 48.1441 61.8692 48.2386 61.962 49.0487L61.8098 49.7935Z" fill="#69AACE"/>
<path d="M101.177 4.34619C101.696 4.57431 102.658 5.06418 103.13 5.37588C102.121 5.52451 102.865 5.8705 102.37 6.21933L102.177 6.17593C101.883 5.26096 101.495 5.77505 100.502 5.25004C100.781 5.18726 101.051 5.19819 101.337 5.19334C101.153 5.05611 101.073 4.97358 100.91 4.81488C100.941 4.47383 100.883 4.63671 101.177 4.34619Z" fill="#76B2CF"/>
<path d="M109.288 32.3357C109.225 32.6678 109.319 32.8265 109.107 33.1267C108.808 33.294 108.957 33.2765 108.651 33.2248C108.137 32.8153 107.863 32.066 108.012 31.4207C108.423 31.4739 108.618 31.4192 109.016 31.47C109.096 31.7028 109.251 32.1123 109.288 32.3357Z" fill="#69AACE"/>
<path d="M60.3664 111.724C60.2117 111.821 60.2302 111.808 60.0548 111.811C60.0272 112.218 60.0385 113.242 59.5862 113.33C58.8346 112.825 59.5362 110.807 60.0026 110.721C60.0568 110.923 60.0952 110.957 60.245 111.102C60.2894 111.312 60.3363 111.511 60.3664 111.724Z" fill="#6CAECE"/>
<path d="M78.8602 148.677L78.9593 148.661C79.1754 149.18 78.88 148.648 78.919 149.216L79.0143 149.257C79.1068 149.073 79.0602 149.126 79.2051 148.988C79.2892 149.36 79.6166 150.623 79.5688 150.886C79.3254 150.89 79.1969 150.864 78.9846 150.975L79.0697 151.068C79.0951 151.33 79.1053 151.315 79.0141 151.558L78.9141 151.505C78.7045 150.912 78.5682 150.213 78.4297 149.592L78.511 149.512L78.6673 149.731C78.8627 149.518 78.8456 148.999 78.8602 148.677Z" fill="#76B2CF"/>
<path d="M93.3048 3.59131C93.9126 3.90196 94.5936 4.27159 95.2043 4.55993L96.1426 5.14971C95.7133 5.23176 95.4968 5.39426 95.4711 5.83066C95.0931 5.44099 93.5014 3.9201 93.3048 3.59131Z" fill="#DAEFF7"/>
<path d="M128.504 63.0493C129.707 63.7262 128.545 65.304 128.633 65.9135C128.167 65.5212 128.589 64.1897 128.534 63.9463C128.208 63.6917 128.166 63.6981 128.149 63.3106L128.504 63.0493Z" fill="#69AACE"/>
<path d="M104.141 11.6622L104.597 10.9265L104.711 10.9695L104.754 11.156C105.174 11.2885 105.608 11.3825 105.946 11.6494C106.056 11.9926 105.941 12.0725 105.649 12.3037C105.31 12.3025 105.414 12.3705 105.232 12.2074V11.9419L105.06 11.8235C104.834 11.8661 104.69 11.9576 104.495 11.9957L104.141 11.6622Z" fill="#76B2CF"/>
<path d="M93.2327 9.99872C92.7777 10.1695 92.5099 10.0119 92.3418 9.58293C92.2259 9.80934 92.2791 9.7553 92.1063 9.92502C91.9049 9.81523 91.9885 9.8933 91.8973 9.64086C92.0493 9.36193 92.112 9.05735 92.2146 8.75268L92.2991 8.75601L92.3789 9.19051L92.4795 9.10437C92.4244 8.91547 92.4187 8.89713 92.4054 8.70178L92.6552 8.53491C92.9155 9.1018 93.0446 9.40457 93.2327 9.99872Z" fill="#76B2CF"/>
<path d="M2.82529 64.4241C3.04686 64.5132 3.04068 64.5298 3.216 64.6988C3.27223 64.9766 2.86745 65.9046 2.80031 66.5419L2.7911 66.6359L2.70135 66.6667C2.59232 65.6105 2.26533 65.5742 2.82529 64.4241Z" fill="#69AACE"/>
<path d="M97.4417 4.37158L97.9299 4.70769C97.8387 4.94483 97.7884 5.13554 97.6668 5.36091L97.3914 5.37952L97.5633 5.57004L97.5158 5.72503C97.2015 5.54439 96.8947 5.41086 96.8748 5.01597C97.0732 4.77227 97.2262 4.59971 97.4417 4.37158Z" fill="#76B2CF"/>
<path d="M67.9225 156.102L68.3527 156.107C68.8075 156.407 68.9334 156.722 68.7476 157.239C68.3481 157.1 67.7963 156.66 67.6151 156.291L67.6722 156.15L67.9225 156.102Z" fill="#6CAECE"/>
<path d="M50.2424 124.044C50.543 124.322 50.5747 124.562 50.5913 124.946C50.462 125.254 50.4779 125.239 50.2423 125.474L50.0208 125.47L49.9294 125.683L49.9116 125.719C49.7664 125.402 49.7172 125.169 49.6282 124.831C49.8917 124.745 50.0561 124.718 50.2601 124.529L50.2424 124.044Z" fill="#76B2CF"/>
<path d="M136.108 21.4378C135.997 21.0967 135.855 20.8075 135.945 20.4677L136.088 20.2908C136.646 20.4867 136.68 20.9133 136.515 21.4207C136.351 21.451 136.325 21.4532 136.147 21.4682L136.108 21.4378Z" fill="#76B2CF"/>
<path d="M62.4758 41.2896L62.7276 41.7532C63.0704 41.9577 63.0951 41.9149 63.1783 42.215L62.9728 42.5515C62.8459 42.3921 62.9253 42.4573 62.7287 42.3634L62.6573 42.4524C62.4527 42.4055 62.549 42.4351 62.3724 42.1868C62.3651 41.7747 62.3375 41.6645 62.4758 41.2896Z" fill="#6CAECE"/>
<path d="M132.693 154.396L132.947 154.213C133.517 154.643 133.316 155.596 132.942 155.569L132.873 155.442L133.071 155.297L133.014 155.186L132.787 155.156C132.764 154.913 132.751 154.627 132.693 154.396Z" fill="#76B2CF"/>
<path d="M102.37 16.8801C102.651 17.1029 102.561 17.0084 102.68 17.4041C102.584 17.8072 102.684 17.6437 102.375 17.9144C102.194 17.7722 102.227 17.7638 102.103 17.5446C102.128 17.129 102.11 17.2676 102.37 16.8801Z" fill="#6CAECE"/>
<path d="M72.5047 93.5286C72.8312 93.8249 72.7569 94.3045 72.6709 94.6825L72.5019 94.5609C72.3665 94.239 72.4575 93.8857 72.5047 93.5286Z" fill="#69AACE"/>
<path d="M87.1571 61.2274C87.2293 61.1773 87.3214 61.1696 87.4002 61.2073C87.479 61.245 87.5313 61.3221 87.537 61.4091C87.5427 61.4961 87.5009 61.5795 87.4278 61.6272C87.3176 61.6993 87.1704 61.6695 87.0963 61.5604C87.0222 61.4513 87.0498 61.303 87.1571 61.2274Z" fill="#69AACE"/>
<path d="M77.2323 7.68293L77.582 7.63184L77.6803 7.76309L77.6009 7.91248L77.3735 7.98105C77.3102 7.91457 77.2103 7.81637 77.1569 7.74704L77.2323 7.68293Z" fill="#76B2CF"/>
</svg>
