<svg width="169" height="170" viewBox="0 0 169 170" fill="none" xmlns="http://www.w3.org/2000/svg">
<path d="M84.1462 167.862C130.067 167.862 167.292 130.637 167.292 84.7163C167.292 38.7959 130.067 1.57007 84.1462 1.57007C38.2258 1.57007 1 38.7959 1 84.7163C1 130.637 38.2258 167.862 84.1462 167.862Z" stroke="#6FACCD" stroke-width="2"/>
<path d="M159.509 84.7163C159.509 130.67 125.736 167.862 84.1465 167.862C42.5568 167.862 8.78418 130.67 8.78418 84.7163C8.78418 38.7625 42.5568 1.57007 84.1465 1.57007C125.736 1.57007 159.509 38.7625 159.509 84.7163Z" stroke="#6FACCD" stroke-width="2"/>
<path d="M151.725 84.7163C151.725 130.708 121.405 167.862 84.1467 167.862C46.889 167.862 16.5684 130.708 16.5684 84.7163C16.5684 38.7242 46.889 1.57007 84.1467 1.57007C121.405 1.57007 151.725 38.7242 151.725 84.7163Z" stroke="#6FACCD" stroke-width="2"/>
<path d="M143.942 84.7163C143.942 107.708 137.228 128.509 126.391 143.553C115.554 158.597 100.614 167.862 84.147 167.862C67.6801 167.862 52.7399 158.597 41.9028 143.553C31.0662 128.509 24.3525 107.708 24.3525 84.7163C24.3525 61.7242 31.0662 40.9235 41.9028 25.8796C52.7399 10.8352 67.6801 1.57007 84.147 1.57007C100.614 1.57007 115.554 10.8352 126.391 25.8796C137.228 40.9235 143.942 61.7242 143.942 84.7163Z" stroke="#6FACCD" stroke-width="2"/>
<path d="M136.157 84.7163C136.157 107.718 130.309 128.526 120.874 143.572C111.435 158.622 98.4411 167.862 84.1463 167.862C69.8517 167.862 56.8574 158.622 47.4189 143.572C37.9833 128.526 32.1357 107.718 32.1357 84.7163C32.1357 61.7143 37.9833 40.9067 47.4189 25.8608C56.8574 10.8101 69.8517 1.57007 84.1463 1.57007C98.4411 1.57007 111.435 10.8101 120.874 25.8608C130.309 40.9067 136.157 61.7143 136.157 84.7163Z" stroke="#6FACCD" stroke-width="2"/>
<path d="M128.373 84.7163C128.373 107.728 123.393 128.543 115.358 143.593C107.314 158.658 96.2633 167.862 84.1466 167.862C72.0299 167.862 60.9787 158.658 52.9355 143.593C44.9005 128.543 39.9199 107.728 39.9199 84.7163C39.9199 61.7047 44.9005 40.8893 52.9355 25.8395C60.9787 10.7746 72.0299 1.57007 84.1466 1.57007C96.2633 1.57007 107.314 10.7746 115.358 25.8395C123.393 40.8893 128.373 61.7047 128.373 84.7163Z" stroke="#6FACCD" stroke-width="2"/>
<path d="M120.59 84.7163C120.59 107.737 116.477 128.561 109.842 143.617C106.525 151.145 102.583 157.215 98.2251 161.399C93.8683 165.581 89.1116 167.862 84.1469 167.862C79.1822 167.862 74.4255 165.581 70.069 161.399C65.7105 157.215 61.7692 151.145 58.4515 143.617C51.8168 128.561 47.7041 107.737 47.7041 84.7163C47.7041 61.6957 51.8168 40.8714 58.4515 25.8155C61.7692 18.2871 65.7105 12.2167 70.069 8.03336C74.4255 3.85167 79.1822 1.57007 84.1469 1.57007C89.1116 1.57007 93.8683 3.85167 98.2251 8.03336C102.583 12.2167 106.525 18.2871 109.842 25.8155C116.477 40.8714 120.59 61.6957 120.59 84.7163Z" stroke="#6FACCD" stroke-width="2"/>
<path d="M112.805 84.7163C112.805 107.745 109.561 128.579 104.327 143.643C101.71 151.177 98.6002 157.249 95.1661 161.43C91.7291 165.614 88.0035 167.862 84.1462 167.862C80.2889 167.862 76.5633 165.614 73.1263 161.43C69.6919 157.249 66.583 151.177 63.9653 143.643C58.7311 128.579 55.4873 107.745 55.4873 84.7163C55.4873 61.6871 58.7311 40.8531 63.9653 25.789C66.583 18.2552 69.6919 12.1838 73.1263 8.00269C76.5633 3.81914 80.2889 1.57007 84.1462 1.57007C88.0035 1.57007 91.7291 3.81914 95.1661 8.00269C98.6002 12.1838 101.71 18.2552 104.327 25.789C109.561 40.8531 112.805 61.6871 112.805 84.7163Z" stroke="#6FACCD" stroke-width="2"/>
<path d="M105.021 84.7163C105.021 107.754 102.647 128.598 98.8149 143.672C96.8979 151.213 94.6208 157.289 92.1066 161.472C89.5789 165.677 86.8779 167.862 84.1465 167.862C81.415 167.862 78.714 165.677 76.1864 161.472C73.6722 157.289 71.3953 151.213 69.4784 143.672C65.6459 128.598 63.2715 107.754 63.2715 84.7163C63.2715 61.679 65.6459 40.8346 69.4784 25.76C71.3953 18.22 73.6722 12.1434 76.1864 7.96037C78.714 3.75526 81.415 1.57007 84.1465 1.57007C86.8779 1.57007 89.5789 3.75526 92.1066 7.96037C94.6208 12.1434 96.8979 18.22 98.8149 25.76C102.647 40.8346 105.021 61.679 105.021 84.7163Z" stroke="#6FACCD" stroke-width="2"/>
<path d="M95.8224 84.7163C95.8224 107.763 94.4765 128.62 92.3027 143.709C91.215 151.257 89.9229 157.346 88.4942 161.54C87.7788 163.64 87.0365 165.244 86.2815 166.316C85.5179 167.4 84.7997 167.862 84.1466 167.862C83.4934 167.862 82.7752 167.4 82.0116 166.316C81.2566 165.244 80.5143 163.64 79.7989 161.54C78.3702 157.346 77.0781 151.257 75.9904 143.709C73.8166 128.62 72.4707 107.763 72.4707 84.7163C72.4707 61.6698 73.8166 40.8125 75.9904 25.7233C77.0781 18.176 78.3702 12.0869 79.7989 7.89218C80.5143 5.79251 81.2566 4.18853 82.0116 3.11636C82.7752 2.0319 83.4934 1.57007 84.1466 1.57007C84.7997 1.57007 85.5179 2.0319 86.2815 3.11636C87.0365 4.18853 87.7788 5.79251 88.4942 7.89218C89.9229 12.0869 91.215 18.176 92.3027 25.7233C94.4765 40.8125 95.8224 61.6698 95.8224 84.7163Z" stroke="#6FACCD" stroke-width="2"/>
<path d="M88.0378 84.7163C88.0378 107.77 87.563 128.639 86.7945 143.742C86.411 151.294 85.9538 157.399 85.4472 161.612C85.1938 163.721 84.9292 165.344 84.6582 166.435C84.5216 166.983 84.3886 167.377 84.2633 167.627C84.2173 167.719 84.1777 167.781 84.1459 167.821C84.114 167.781 84.0744 167.719 84.0284 167.627C83.9031 167.377 83.7701 166.983 83.6335 166.435C83.3625 165.344 83.0979 163.721 82.8445 161.612C82.3379 157.399 81.8807 151.294 81.4972 143.742C80.7287 128.639 80.2539 107.77 80.2539 84.7163C80.2539 61.6625 80.7287 40.7937 81.4972 25.6909C81.8807 18.1383 82.3379 12.0336 82.8445 7.82043C83.0979 5.71165 83.3625 4.08866 83.6335 2.9981C83.7701 2.45 83.9031 2.05583 84.0284 1.80586C84.0744 1.71386 84.114 1.65156 84.1459 1.61133C84.1777 1.65156 84.2173 1.71386 84.2633 1.80586C84.3886 2.05583 84.5216 2.45 84.6582 2.9981C84.9292 4.08866 85.1938 5.71165 85.4472 7.82043C85.9538 12.0336 86.411 18.1383 86.7945 25.6909C87.563 40.7937 88.0378 61.6625 88.0378 84.7163Z" stroke="#6FACCD" stroke-width="2"/>
</svg>
