<svg width="1440" height="189" viewBox="0 0 1440 189" fill="none" xmlns="http://www.w3.org/2000/svg">
    <g class="banner-strip">
        <path d="M337.685 34.7969C284.388 34.7969 240.807 69.024 240.807 111.49C240.807 153.957 284.388 188.158 337.685 188.158C365.875 188.158 392.485 178.39 411.01 161.601L388.261 149.371C373.908 160.789 356.023 166.845 337.685 166.498C304.002 166.498 275.916 147.22 269.36 122.191H433.811C441.895 76.2529 396.734 34.7969 337.685 34.7969ZM269.749 100.505C275.915 75.1388 304.08 56.4576 337.685 56.4576C372.042 56.4576 399.429 75.7088 406.01 100.505H269.749Z" fill="white" fill-opacity="0.08"/>
        <path d="M582.794 66.3553C580.85 87.446 558.879 103.951 532.217 103.951C505.556 103.951 483.196 87.446 481.641 66.3553L481.278 34.7969H453.865V67.2104C455.42 87.0574 468.919 104.184 488.222 114.548C468.919 124.912 455.42 142.038 453.865 161.911V187.666H481.278L481.641 162.922C483.196 141.831 505.219 125.352 532.217 125.352C559.216 125.352 580.85 141.831 582.794 162.922V187.666H610.181V162.015C608.678 142.453 595.541 125.041 576.213 114.652C595.541 104.288 608.678 86.8501 610.181 67.3139V34.7969H582.794V66.3553Z" fill="white" fill-opacity="0.08"/>
        <path d="M726.387 34.7969C673.116 34.7969 629.51 69.024 629.51 111.49C629.51 153.957 673.116 188.158 726.387 188.158C754.577 188.158 781.213 178.39 799.712 161.601L776.963 149.371C762.61 160.789 744.725 166.845 726.387 166.498C692.704 166.498 664.617 147.22 658.062 122.191H822.513C830.597 76.2529 785.462 34.7969 726.387 34.7969ZM658.451 100.582C664.618 75.2166 692.808 56.5354 726.387 56.5354C760.744 56.5354 788.157 75.7866 794.712 100.582H658.451Z" fill="white" fill-opacity="0.08"/>
        <path d="M1068.55 135.846V76.849H1125.56V55.4733H1068.55L1068.76 35.0045H1041.3V135.846C1041.5 182.64 1078.45 188.314 1125.94 188.858V167.43C1093.35 166.601 1068.55 162.663 1068.55 135.846Z" fill="white" fill-opacity="0.08"/>
        <path d="M1189.61 87.731C1189.61 60.7846 1214.43 56.8722 1246.87 56.1467V34.7969C1199.35 35.341 1162.4 41.0154 1162.19 87.8088L1162.4 187.666H1189.84L1189.63 168.13V146.728L1189.61 87.731Z" fill="white" fill-opacity="0.08"/>
        <path d="M928.044 35.0555C886.718 35.0555 845.392 58.9705 843.086 91.643V187.51H870.472V92.4203C872.39 71.6923 900.968 56.6127 928.018 56.6127C954.628 56.6127 983.751 72.1587 985.306 93.2495C985.306 124.341 985.642 156.366 985.642 187.51H1012.67V92.3427C1010.41 60.0847 969.708 35.0555 928.044 35.0555Z" fill="white" fill-opacity="0.08"/>
        <path d="M191.19 129.55C191.19 142.142 182.044 152.403 170.825 152.403C167.334 152.584 163.864 151.764 160.825 150.038C157.786 148.311 155.304 145.752 153.672 142.661L86.5913 23.4745C77.7301 7.773 65.1378 0.155454 48.089 0.155454C21.5571 0.155454 0 25.8842 0 57.5462V187.096H27.6978V57.5462C27.5754 54.5867 28.0534 51.633 29.103 48.8631C30.1525 46.0932 31.752 43.5644 33.8049 41.4291C35.8579 39.2939 38.3218 37.5962 41.0483 36.4386C43.7748 35.281 46.7075 34.6875 49.6695 34.6935C56.6134 34.6935 61.4068 37.6731 65.2155 44.3579L133.773 162.248C143.593 179.09 155.331 186.941 170.721 186.941C197.227 186.941 218.784 161.186 218.784 129.55V0H191.19V129.55Z" fill="white" fill-opacity="0.08"/>
        <path d="M1409.45 54.1519C1391.13 41.4301 1366.91 35.0822 1342.35 35.0822C1294.15 35.0822 1246.3 59.9299 1246.3 110.506V111.595C1246.3 161.575 1295.53 187.64 1344.29 187.64C1367.87 187.64 1393.83 180.178 1411.65 168.078V187.64H1440V106.335C1440 105.739 1440 105.117 1440 104.417C1436.55 72.2113 1409.45 54.1519 1409.45 54.1519ZM1342.81 166.109C1309.75 166.109 1273.71 144.993 1273.71 110.765C1274.02 75.6574 1310.45 56.5875 1343.9 56.5875C1376.86 56.5875 1412.28 75.6574 1412.28 110.765C1412.28 144.993 1376.16 166.109 1342.81 166.109Z" fill="white" fill-opacity="0.08"/>
    </g>
    <g class="static-logo">
        <path d="M90.0722 38.0001H67.6364V51.9252H88.5307C141.446 51.9252 118.24 115.359 171 115.359V101.434C134.024 101.434 149.024 38.0001 90.0722 38.0001Z" fill="#70C8D6"/>
        <path d="M66.2439 91.382C66.2439 85.812 70.13 81.3235 74.9098 81.3235H97.3455V68.9463H73.2064C70.1589 68.9463 67.1413 69.5466 64.3257 70.7128C61.5102 71.8791 58.9519 73.5884 56.797 75.7433C54.6421 77.8983 52.9327 80.4565 51.7665 83.2721C50.6002 86.0876 50 89.1053 50 92.1528C50 95.2003 50.6002 98.218 51.7665 101.034C52.9327 103.849 54.6421 106.407 56.797 108.562C58.9519 110.717 61.5102 112.427 64.3257 113.593C67.1413 114.759 70.1589 115.359 73.2064 115.359H125.818V101.434H74.9098C70.117 101.434 66.2439 96.9521 66.2439 91.382Z" fill="#70C8D6"/>
    </g>
</svg>
