<svg width="121" height="78" viewBox="0 0 121 78" fill="none" xmlns="http://www.w3.org/2000/svg">
<path d="M40.0722 0H17.6364V13.9252H38.5307C91.4463 13.9252 68.2398 77.3591 121 77.3591V63.4339C84.0238 63.4339 99.0242 0 40.0722 0Z" fill="#70C8D6"/>
<path d="M16.2439 53.382C16.2439 47.8119 20.13 43.3235 24.9098 43.3235H47.3455V30.9463H23.2064C20.1589 30.9463 17.1413 31.5465 14.3257 32.7128C11.5102 33.879 8.95193 35.5884 6.79701 37.7433C4.6421 39.8982 2.93271 42.4565 1.76648 45.272C0.600246 48.0875 0 51.1052 0 54.1527C0 57.2002 0.600246 60.2179 1.76648 63.0334C2.93271 65.849 4.6421 68.4072 6.79701 70.5621C8.95193 72.7171 11.5102 74.4264 14.3257 75.5927C17.1413 76.7589 20.1589 77.3591 23.2064 77.3591H75.8176V63.434H24.9098C20.117 63.434 16.2439 58.952 16.2439 53.382Z" fill="#70C8D6"/>
</svg>
