<svg width="161" height="21" viewBox="0 0 161 21" fill="none" xmlns="http://www.w3.org/2000/svg">
<path d="M10.8436 0H4.77246V3.76819H10.4265C24.7456 3.76819 18.4659 20.9336 32.743 20.9336V17.1654C22.7371 17.1654 26.7962 0 10.8436 0Z" fill="white"/>
<path d="M4.39564 14.4453C4.39564 12.938 5.44723 11.7235 6.74068 11.7235H12.8118V8.37415H6.27973C5.45507 8.37415 4.63848 8.53659 3.87658 8.85217C3.11469 9.16776 2.42242 9.63032 1.83929 10.2134C1.25617 10.7966 0.793601 11.4888 0.478015 12.2507C0.162428 13.0126 0 13.8292 0 14.6539C0 15.4786 0.162428 16.2951 0.478015 17.057C0.793601 17.8189 1.25617 18.5112 1.83929 19.0943C2.42242 19.6775 3.11469 20.14 3.87658 20.4556C4.63848 20.7712 5.45507 20.9336 6.27973 20.9336H20.5165V17.1654H6.74068C5.44372 17.1654 4.39564 15.9526 4.39564 14.4453Z" fill="white"/>
<path d="M71.1809 5.62169C66.8505 5.62169 63.3096 8.40264 63.3096 11.853C63.3096 15.3035 66.8505 18.0823 71.1809 18.0823C73.4713 18.0823 75.6334 17.2887 77.1386 15.9245L75.2902 14.9308C74.124 15.8585 72.6708 16.3506 71.1809 16.3224C68.4441 16.3224 66.1621 14.7561 65.6295 12.7225H78.9911C79.648 8.98999 75.9786 5.62169 71.1809 5.62169ZM65.6611 10.9604C66.1621 8.89947 68.4504 7.38162 71.1809 7.38162C73.9724 7.38162 76.1975 8.94578 76.7323 10.9604H65.6611Z" fill="white"/>
<path d="M91.0955 8.18581C90.9377 9.89943 89.1525 11.2404 86.9862 11.2404C84.82 11.2404 83.0032 9.89943 82.8769 8.18581L82.8474 5.62169H80.6201V8.25528C80.7464 9.86786 81.8432 11.2594 83.4116 12.1015C81.8432 12.9435 80.7464 14.3351 80.6201 15.9498V18.0423H82.8474L82.8769 16.0319C83.0032 14.3182 84.7926 12.9793 86.9862 12.9793C89.1798 12.9793 90.9377 14.3182 91.0955 16.0319V18.0423H93.3207V15.9582C93.1986 14.3687 92.1313 12.9541 90.5608 12.1099C92.1313 11.2678 93.1986 9.85101 93.3207 8.2637V5.62169H91.0955V8.18581Z" fill="white"/>
<path d="M102.762 5.62169C98.4337 5.62169 94.8906 8.40264 94.8906 11.853C94.8906 15.3035 98.4337 18.0823 102.762 18.0823C105.052 18.0823 107.217 17.2887 108.72 15.9245L106.871 14.9308C105.705 15.8585 104.252 16.3506 102.762 16.3224C100.025 16.3224 97.7431 14.7561 97.2105 12.7225H110.572C111.229 8.98999 107.562 5.62169 102.762 5.62169ZM97.2421 10.9668C97.7432 8.90579 100.034 7.38795 102.762 7.38795C105.553 7.38795 107.781 8.9521 108.313 10.9668H97.2421Z" fill="white"/>
<path d="M130.564 13.8319V9.03842H135.196V7.30164H130.564L130.581 5.63854H128.35V13.8319C128.366 17.6339 131.368 18.095 135.227 18.1392V16.3982C132.579 16.3308 130.564 16.0108 130.564 13.8319Z" fill="white"/>
<path d="M140.4 9.92259C140.4 7.73319 142.417 7.41531 145.053 7.35636V5.62169C141.192 5.6659 138.19 6.12694 138.173 9.92891L138.19 18.0423H140.419L140.402 16.455V14.7161L140.4 9.92259Z" fill="white"/>
<path d="M119.148 5.6427C115.79 5.6427 112.432 7.58579 112.245 10.2404V18.0296H114.47V10.3036C114.626 8.61944 116.948 7.39422 119.146 7.39422C121.308 7.39422 123.674 8.65733 123.801 10.371C123.801 12.8972 123.828 15.4992 123.828 18.0296H126.024V10.2973C125.84 7.67632 122.533 5.6427 119.148 5.6427Z" fill="white"/>
<path d="M59.2774 13.3204C59.2774 14.3435 58.5342 15.1772 57.6227 15.1772C57.3391 15.1919 57.0572 15.1252 56.8102 14.985C56.5633 14.8447 56.3616 14.6368 56.229 14.3856L50.7787 4.70173C50.0587 3.42599 49.0356 2.80706 47.6504 2.80706C45.4947 2.80706 43.7432 4.89752 43.7432 7.47006V17.996H45.9936V7.47006C45.9837 7.2296 46.0225 6.98961 46.1078 6.76456C46.1931 6.53951 46.323 6.33404 46.4898 6.16055C46.6566 5.98706 46.8568 5.84913 47.0783 5.75507C47.2999 5.66102 47.5381 5.6128 47.7788 5.61329C48.343 5.61329 48.7325 5.85538 49.0419 6.39852L54.6123 15.9771C55.4101 17.3455 56.3638 17.9834 57.6143 17.9834C59.7679 17.9834 61.5194 15.8908 61.5194 13.3204V2.79443H59.2774V13.3204Z" fill="white"/>
<path d="M158.261 7.19428C156.773 6.16064 154.805 5.64487 152.809 5.64487C148.893 5.64487 145.005 7.66374 145.005 11.7731V11.8615C145.005 15.9224 149.005 18.0402 152.967 18.0402C154.882 18.0402 156.992 17.4339 158.44 16.4508V18.0402H160.743V11.4341C160.743 11.3857 160.743 11.3352 160.743 11.2784C160.463 8.66161 158.261 7.19428 158.261 7.19428ZM152.847 16.2908C150.16 16.2908 147.232 14.5751 147.232 11.7941C147.257 8.9416 150.217 7.39217 152.935 7.39217C155.613 7.39217 158.491 8.9416 158.491 11.7941C158.491 14.5751 155.556 16.2908 152.847 16.2908Z" fill="white"/>
</svg>
