<svg width="60" height="60" viewBox="0 0 60 60" fill="none" xmlns="http://www.w3.org/2000/svg">
<path d="M27.2125 48.75V41.25H25.9625C22.8492 41.25 20.1958 40.1533 18.0025 37.96C15.8092 35.7667 14.7125 33.1133 14.7125 30C14.7125 27.69 15.3783 25.5875 16.71 23.6925C18.0417 21.7992 19.7983 20.4208 21.98 19.5575C22.0567 17.8525 22.7883 16.5308 24.175 15.5925C25.5617 14.6542 27.0317 14.4567 28.585 15L27.5925 12.3325C27.3825 11.8025 27.3975 11.2975 27.6375 10.8175C27.8758 10.3375 28.2642 9.98749 28.8025 9.76749L29.2975 9.57749L28.9625 8.66499C28.8075 8.26332 28.8183 7.87332 28.995 7.49499C29.1717 7.11665 29.4725 6.84915 29.8975 6.69249C30.2992 6.54749 30.6925 6.56082 31.0775 6.73249C31.4642 6.90249 31.7233 7.19665 31.855 7.61499L32.1925 8.52749L32.48 8.43249C32.9867 8.24582 33.4883 8.27499 33.985 8.51999C34.4817 8.76332 34.8392 9.13832 35.0575 9.64499L39.895 22.8425C40.1117 23.3475 40.1008 23.8458 39.8625 24.3375C39.6242 24.8308 39.2517 25.1867 38.745 25.405L38.395 25.5475L38.73 26.4625C38.8833 26.8725 38.8725 27.2692 38.6975 27.6525C38.5225 28.0358 38.2208 28.3058 37.7925 28.4625C37.3925 28.6058 37 28.5925 36.615 28.4225C36.2283 28.2525 35.9683 27.9583 35.835 27.54L35.5 26.625L35.115 26.8175C34.5767 27.0342 34.0483 27.0233 33.53 26.785C33.0133 26.545 32.6508 26.1517 32.4425 25.605L31.53 22.99C31.0317 23.7017 30.3925 24.2675 29.6125 24.6875C28.8325 25.1075 27.9933 25.3075 27.095 25.2875C26.0517 25.2692 25.11 24.9642 24.27 24.3725C23.43 23.7808 22.7983 23.0192 22.375 22.0875C20.8017 22.7858 19.5475 23.8417 18.6125 25.255C17.6775 26.6683 17.2108 28.25 17.2125 30C17.2125 32.43 18.0625 34.4967 19.7625 36.2C21.4642 37.9 23.5308 38.75 25.9625 38.75H43.4625C43.8158 38.75 44.1125 38.87 44.3525 39.11C44.5925 39.35 44.7125 39.6475 44.7125 40.0025C44.7125 40.3575 44.5925 40.6542 44.3525 40.8925C44.1125 41.1308 43.8158 41.25 43.4625 41.25H30.2875V48.75H44.0375C44.3925 48.75 44.69 48.87 44.93 49.11C45.17 49.35 45.2892 49.6475 45.2875 50.0025C45.2858 50.3575 45.1667 50.6542 44.93 50.8925C44.6933 51.1308 44.3958 51.25 44.0375 51.25H15.965C15.61 51.25 15.3125 51.13 15.0725 50.89C14.8325 50.65 14.7125 50.3525 14.7125 49.9975C14.7125 49.6425 14.8325 49.3458 15.0725 49.1075C15.3125 48.8691 15.6092 48.75 15.9625 48.75H27.2125ZM34.51 24.645L37.7225 23.385L33.0875 10.5775L29.75 11.74L34.51 24.645ZM29.4025 22.195C29.9942 21.605 30.29 20.8742 30.29 20.0025C30.29 19.1308 29.995 18.4 29.405 17.81C28.815 17.22 28.085 16.9242 27.215 16.9225C26.345 16.9208 25.6142 17.2158 25.0225 17.8075C24.4308 18.3992 24.135 19.1292 24.135 19.9975C24.135 20.8658 24.4292 21.5967 25.0175 22.19C25.6058 22.7833 26.3358 23.0792 27.2075 23.0775C28.0792 23.0758 28.8108 22.7808 29.4025 22.1925" fill="#6FACCD"/>
</svg>
