<svg width="181" height="182" viewBox="0 0 181 182" fill="none" xmlns="http://www.w3.org/2000/svg">
<path d="M88.7619 80.3353C89.0832 78.2115 88.9888 75.1693 88.9839 72.9702L88.9621 62.3365L88.9698 21.7455L88.956 8.90608C88.9499 6.55715 88.9321 4.20251 88.9519 1.85661C88.9584 1.09094 88.8981 0.0969613 89.8424 0.0133806C90.8512 -0.100181 91.177 0.520213 91.1668 1.45192C91.1446 3.56663 91.1324 5.68792 91.1336 7.80377L91.1308 22.907L91.1304 68.2357C91.2074 69.8899 91.3099 71.5356 91.2037 73.1906C91.1851 73.4766 91.5072 73.6573 91.7677 73.678C91.845 73.2137 91.6457 72.5148 91.5051 72.0655L91.6048 71.9428L91.8912 72.2616C92.0889 71.9979 92.0452 71.4307 92.3596 70.8923C92.8376 68.6624 93.2375 65.9127 93.6382 63.6066L96.0091 49.8468L101.731 16.6261L103.443 7.04085C103.723 5.44289 104.01 3.42244 104.42 1.84239C104.656 0.932687 105.965 1.66648 106.499 1.94489C106.441 3.69989 105.8 6.66038 105.474 8.49482C104.825 12.358 104.15 16.2169 103.45 20.0715L95.7591 64.1645C95.8094 65.1161 95.6749 65.8944 95.463 66.8173C95.1299 68.2669 94.9983 69.6756 94.7009 71.1398L94.79 71.1568C94.8006 71.137 95.5428 69.0363 95.5606 68.9678C95.9589 67.4242 96.3275 65.5764 97.1277 64.1876L97.1897 64.0822C100.386 53.3172 103.862 42.6964 107.108 31.9687C108.949 25.7972 110.86 19.6471 112.841 13.5194C113.694 10.8528 114.424 8.13177 115.415 5.51217C115.617 5.02413 115.772 4.39365 116.276 4.12488C116.489 4.01132 116.822 4.02339 117.01 4.16244C117.87 4.79855 117.616 6.09946 117.358 6.93016L104.985 46.4411L100.593 60.4392C99.9402 62.567 99.3272 64.7317 98.6158 66.8388C98.4302 67.3894 98.0559 68.6555 97.8448 69.1392C98.032 70.3092 97.231 71.38 97.007 72.5302C96.8599 73.2842 96.4329 72.854 96.9855 73.6788C97.4875 72.5809 98.6125 70.0747 99.3268 69.2377C99.7449 68.6429 101.276 65.2912 101.649 64.4999C102.702 62.2648 103.838 60.1378 104.931 57.9318L122.232 22.4424L126.442 13.9568C126.998 12.8295 128.099 10.4131 128.74 9.45666C129.417 9.07218 130.173 9.49864 130.528 10.126C130.619 10.8971 127.838 16.1436 127.351 17.1366L121.738 28.5469C119.661 32.7393 117.612 36.9454 115.593 41.1658C113.372 45.613 111.179 50.0745 109.015 54.5497C109.049 56.0576 108.822 56.9485 107.486 57.7592L95.8616 81.0236L95.8932 80.9774L95.9666 81.2801L95.7757 81.2614L95.8345 81.3862C96.8429 80.7943 103.442 72.5108 104.75 70.9356L133.628 35.8714C137.57 31.1082 141.499 26.3178 145.434 21.5472C145.769 21.1399 146.329 20.5654 146.854 20.4829C149.612 21.2176 145.47 25.0632 144.648 26.0775L134.707 38.1345L103.927 75.5011C101.82 78.0649 99.4317 80.6181 97.3809 83.149L97.5227 83.0866C98.8479 82.4947 101.145 80.5905 102.377 79.6226L108.864 74.5304L146.879 45.1273C151.377 41.6483 155.789 37.8651 160.514 34.7374C160.966 34.438 162.105 35.916 161.557 36.3957C157.333 40.0926 151.455 44.4057 147.079 47.7692L129.044 61.796L113.678 73.6768L106.945 78.8261C105.549 79.8949 104.193 81.0236 102.762 82.043L102.969 82.3387C103.268 82.3675 103.266 82.3586 103.564 82.2978C107.492 80.0156 111.792 77.8404 115.829 75.711L133.921 66.0613L157.8 53.3573L165.223 49.3804C166.112 48.904 168.302 47.4297 169.318 47.58C170.279 47.7226 169.941 49.553 169.178 49.8577C168.307 50.3325 167.467 50.7628 166.613 51.2214L159.468 54.9925L136.591 67.1451L109.398 81.573C106.136 83.2859 102.779 85.2379 99.4698 86.835L99.612 86.8236C101.118 86.6948 104.558 85.6661 106.115 85.2379L116.901 82.2808L159.771 70.6281L169.726 67.9201C170.696 67.6499 176.065 65.9872 176.699 66.2177C177.052 66.535 177.381 67.0689 177.338 67.5689C177.315 67.8351 177.258 67.9359 177.046 68.0883C176.287 68.6324 168.058 70.6293 166.576 71.0405L117.38 84.503C113.373 85.6163 109.357 86.7001 105.334 87.7542C102.838 88.4008 100.077 88.825 97.754 89.8715C99.7332 89.9999 101.718 89.9874 103.702 90.0352C107.037 90.1255 110.372 90.2329 113.706 90.3569L155.925 92.0791L171.301 92.6812L176.477 92.887C177.626 92.9279 180.566 92.571 180.135 94.5156C180.078 94.7843 179.909 95.0156 179.671 95.1525C179.184 95.4321 173.503 95.0517 172.497 95.0067L159.754 94.4715L124.953 93.1005C117.33 92.776 109.355 92.2858 101.739 92.1464C102.809 92.6338 104.746 93.0498 105.949 93.3618L113.649 95.3178L159.971 106.58C165.193 107.867 170.396 109.167 175.656 110.288C176.06 110.375 177.209 110.806 177.33 111.2C178.203 114.033 173.433 112.092 172.142 111.783L161.911 109.329L122.69 99.7934C118.028 98.6197 113.357 97.4821 108.677 96.3797C105.28 95.5512 101.937 94.6895 98.51 93.978L141.958 118.42C148.359 121.902 154.721 125.455 161.043 129.078C163.097 130.235 165.208 131.272 167.256 132.434C168.26 133.005 169.252 133.6 168.521 134.879C168.246 135.102 168.04 135.176 167.693 135.13C166.598 134.985 149.714 125.234 147.488 123.991C137.306 118.309 127.047 112.746 116.923 106.961L108.158 101.892C107.554 101.546 105.048 100.075 104.526 99.8866C103.616 99.9324 102.064 98.542 101.145 98.3904C101.685 99.4239 103.259 99.8583 103.855 101.102L137.866 130.927L151.659 143.007C152.821 144.034 153.99 145.052 155.166 146.063C156.001 146.771 158.189 148.229 158.189 149.375C158.189 150.866 157.185 150.882 156.219 150.013C151.12 145.424 145.92 140.955 140.763 136.433L110.28 109.71L102.734 103.093C101.496 101.991 98.8994 99.509 97.5891 98.7283C99.4208 101.406 101.365 103.669 103.319 106.229L111.115 116.648L136.485 150.124C138.132 152.326 139.802 154.512 141.495 156.679C142.545 158.03 143.603 159.357 144.605 160.743C145.547 162.046 144.994 162.365 143.911 163.155C142.535 161.93 140.864 159.576 139.705 158.06L133.381 149.758L108.836 117.336L100.1 105.766C98.7981 104.021 96.3065 100.394 94.9375 98.9742C95.9005 101.504 96.9563 103.877 98.0097 106.365L104.162 120.726L119.966 157.611C121.183 160.441 122.418 163.263 123.672 166.076C124.454 167.824 125.255 169.561 126.002 171.33C126.328 172.102 126.55 173.244 125.477 173.558C124.472 173.852 123.953 172.573 123.62 171.806C122.052 168.205 120.598 164.545 119.052 160.933L107.913 135.125C103.665 125.304 99.3183 115.544 95.3345 105.606C95.0619 104.927 94.7365 104.23 94.485 103.547C94.2706 103.935 94.3221 104.126 94.3318 104.59C94.5198 105.076 95.1522 108.222 95.3204 108.946L98.2199 121.835L107.757 164.374L109.611 172.402C109.993 174.01 110.362 175.536 110.713 177.216C111.103 178.344 109.982 179.307 109.019 178.564C108.778 178.378 108.51 177.725 108.449 177.439C107.24 171.76 105.937 166.084 104.641 160.424L94.7969 116.517L92.5589 106.616C92.1347 104.752 91.6652 102.358 91.0615 100.573C91.0214 102.676 91.1049 104.749 91.1203 106.849L91.1385 117.81L91.1243 158.292L91.1352 172.892C91.1381 175.155 91.1478 177.417 91.1474 179.68C91.1474 180.33 90.7585 180.929 90.1171 181.098C88.7737 180.949 88.941 179.286 88.9556 178.314C88.7984 176.621 88.9179 172.565 88.9175 170.739L88.9211 155.092L88.922 126.493C88.9434 120.798 88.9317 115.104 88.8867 109.409C88.866 108.051 88.7036 106.699 88.6777 105.274C88.4654 105.456 88.1303 108.933 87.7649 109.559C86.8124 115.666 85.7999 121.763 84.7275 127.849L79.8561 155.949L77.0161 171.96L76.1815 176.453C75.9562 177.685 75.9355 181.142 73.7518 179.289C73.3532 178.95 74.7789 172.047 74.8972 171.394L76.7001 161.015L81.9782 130.461C82.8238 125.618 83.9201 120.353 84.6514 115.558C84.653 114.789 84.6749 113.751 84.8855 113.015C84.9868 112.662 85.1424 112.738 84.986 112.346C84.6668 112.17 84.8235 112.181 84.5043 112.267C84.3682 113.174 84.0809 114.031 83.613 114.823C79.139 129.964 74.5172 145.06 69.7482 160.111L66.1575 171.468C65.6798 172.975 65.22 174.493 64.7496 176.003C64.6001 176.478 63.996 177.131 63.4548 176.98C61.6851 176.485 63.4086 172.874 63.8129 171.609L65.5534 166.061L69.681 152.753L82.5693 111.05C82.5758 109.452 83.5449 107.839 83.7621 106.376C83.442 106.489 82.4389 109.852 81.4985 110.421C81.0197 111.59 80.1182 113.336 79.5454 114.501L75.8213 122L67.3818 139.294L54.8317 164.861C53.8424 166.838 52.9324 168.842 51.971 170.829C51.7579 171.204 51.435 171.824 51.0343 171.995C50.5283 172.212 49.7622 171.743 49.6086 171.237C49.4972 170.87 49.6103 170.336 49.7828 170C50.1904 169.21 50.5956 168.429 50.9886 167.631L54.0036 161.483C56.9154 155.423 59.881 149.388 62.9005 143.381L82.9745 102.473C82.9785 101.518 83.8609 100.599 84.1344 99.5803C83.7329 100.199 82.8416 101.552 82.1788 101.79C77.956 106.569 73.375 112.549 69.2637 117.567L46.423 145.267C44.9888 147.015 34.477 160.141 33.6845 160.482C33.4167 160.597 33.1988 160.589 32.9334 160.472C32.5554 160.306 32.235 159.923 32.1211 159.535C32.1325 159.147 32.2163 158.975 32.4703 158.663C35.2666 155.224 38.0909 151.801 40.9329 148.404L51.8701 135.18L79.6515 101.241C79.9558 100.705 80.3702 99.8745 80.8714 99.5657C81.1412 99.3996 81.1594 99.3551 81.3365 99.0852L81.2251 98.9807C80.8228 99.1347 80.2702 99.8497 79.2269 100.291L79.0839 100.351C72.3622 105.451 65.6964 110.625 59.0869 115.87L37.0582 132.97C32.7304 136.374 28.374 139.74 23.9895 143.07C23.1063 143.736 20.0559 146.429 19.1289 146.455C18.5554 146.251 18.0961 145.782 18.1387 145.142C18.5271 144.235 23.0897 140.921 24.199 140.047C28.899 136.365 33.6209 132.711 38.3643 129.085L60.1091 112.196C63.3774 109.717 66.6258 107.214 69.8552 104.686C70.3742 104.283 73.405 102.006 73.7279 101.671C74.3045 100.743 76.474 99.5224 76.4521 99.1638C75.4506 99.4645 74.0557 100.477 72.5032 100.97L72.397 101.002C69.2819 102.764 66.0262 104.396 62.8738 106.101L33.4852 121.74L18.5071 129.752C16.4476 130.851 14.3973 131.971 12.3293 133.051C11.6341 133.414 10.9067 133.74 10.3013 133.046C9.66095 132.311 10.5215 131.534 11.1374 131.202C13.2565 130.057 15.3832 128.928 17.502 127.783L33.0059 119.522L80.5586 94.2871C78.5248 94.7381 76.5822 95.347 74.5759 95.8915L64.7994 98.5055L22.4933 109.938L11.2022 112.996C9.11385 113.582 7.02316 114.223 4.92991 114.79C4.52064 114.859 3.89522 115.071 3.50284 114.893C2.99212 114.662 2.62879 113.946 2.90951 113.426C3.09831 113.112 3.65457 112.801 3.99339 112.706C5.78723 112.203 7.62876 111.719 9.42115 111.222C13.8964 109.947 18.3858 108.722 22.8883 107.546L62.5975 96.7962L75.3477 93.2982C77.4876 92.7189 80.3099 92.0889 82.3526 91.3884C77.7964 91.14 72.9914 91.08 68.374 90.8803L20.5679 88.8692L6.30492 88.2449C4.67212 88.1719 3.04592 88.0865 1.41073 88.0958C0.826516 88.099 0.0148951 87.7964 0.00071516 87.0894C-0.0232287 85.8963 0.554787 85.746 1.62618 85.7699C3.22799 85.8144 4.80533 85.9396 6.39551 86.0077L18.759 86.5571L60.1034 88.3133L71.1115 88.8299C73.685 88.949 76.2175 89.1086 78.7942 89.0629C77.292 88.5544 74.1185 87.8819 72.455 87.4755L59.7688 84.3579L13.8722 72.8207C12.2834 72.4123 3.9158 70.4656 3.02331 69.83C2.79761 69.4832 2.73194 69.3401 2.80498 68.918C2.98778 67.8622 3.99756 68.0344 4.78762 68.2382C6.84959 68.7697 8.90135 69.3118 10.9728 69.8142L31.78 75.0486L49.0467 79.3257C59.9815 82.1321 70.9341 84.87 81.9037 87.5395C80.5659 86.4622 78.0204 85.2132 76.4339 84.281C71.513 81.3352 66.5318 78.4919 61.4927 75.7535L33.9856 60.2439L22.7364 53.9602C20.0602 52.5243 17.411 51.0387 14.7902 49.504C13.8222 48.949 10.7802 47.6926 11.0543 46.4359C12.1691 44.7428 14.977 47.1724 16.2399 47.8458C20.1926 49.9715 24.1188 52.1472 28.017 54.3714L61.0235 72.9265C65.2102 75.3358 69.4091 77.7233 73.621 80.089C74.9065 80.8061 76.6535 81.9093 77.8948 82.5214L77.975 82.5603C78.8704 82.5798 78.8659 83.0911 79.7933 83.3945C79.2796 82.5915 78.2161 82.2755 77.8944 81.34C75.2338 78.8517 72.1041 76.512 69.3585 74.0609L37.8295 46.3176L27.5296 37.3388C25.9228 35.9346 24.3396 34.5855 22.7008 33.1371C21.4837 32.4492 21.888 30.6196 23.0767 30.7662C23.9429 30.8732 27.3473 34.1281 27.9911 34.6904L38.9376 44.3749L78.0322 78.611C78.7687 78.6608 80.6352 80.6886 81.3073 81.246L81.4434 81.0848C80.856 80.2919 79.1374 78.7407 78.9992 77.7967C78.8343 77.4997 77.0813 75.2674 76.7325 74.8019C74.6237 71.9683 72.4979 69.1477 70.3555 66.3393L51.1186 40.7497L40.8997 27.1451C39.1503 24.8133 37.3373 22.5215 35.6102 20.171C34.5868 18.7789 36.6101 17.6203 37.5836 18.8959C40.8576 23.1845 43.9926 27.5778 47.2256 31.8958C58.2467 46.3334 68.9306 61.0627 80.0866 75.3942C80.8572 76.3653 81.6051 77.3539 82.3303 78.359C83.1803 79.5441 84.1413 81.0917 85.1971 82.0409L85.317 82.1475C83.1872 76.7595 80.4245 70.938 78.1253 65.5671L62.264 28.5691C61.3857 26.5341 53.7917 9.30324 53.8096 8.39572C53.814 8.1769 53.906 8.0219 54.0855 7.89894C54.4298 7.66274 54.9816 7.42909 55.4005 7.55939C55.7854 7.67915 56.0796 8.40771 56.2416 8.75463C57.626 11.7176 58.8155 14.7954 60.0965 17.8061L67.9405 36.2518L77.2032 58.01C79.3987 63.0637 81.5962 67.8152 83.7305 72.952C84.2454 73.6873 84.8361 74.7237 84.9824 75.6097L85.1821 75.7467C85.4714 75.3038 85.3243 75.0855 85.1545 74.5645C84.8547 73.6464 84.6769 72.7336 84.6364 71.7674C81.0043 56.2788 77.4872 40.7631 74.0853 25.2222L70.8214 10.9189C70.3709 8.91633 69.365 5.19255 69.3018 3.05733C69.5165 2.26678 70.4135 2.34404 70.8875 2.65892C71.7346 3.22117 71.7318 4.33251 71.9518 5.34861L72.9027 9.72499L76.2196 25.0342L83.976 58.8506L87.425 74.0009C87.8897 76.0797 88.2531 78.2873 88.7619 80.3353Z" fill="#6FACCD"/>
<path d="M87.7649 109.559C87.7398 108.603 88.2365 106.331 88.3621 105.24C88.45 104.473 88.5817 102.956 88.719 102.262C89.1776 104.767 89.0407 108.882 89.0241 111.503L89.033 121.396L89.0168 156.077L89.0241 171.288C89.0249 172.392 89.1002 177.418 88.9556 178.314C88.7984 176.621 88.9179 172.565 88.9175 170.739L88.9212 155.092L88.922 126.493C88.9435 120.798 88.9317 115.104 88.8867 109.41C88.8661 108.051 88.7036 106.7 88.6777 105.274C88.4654 105.456 88.1303 108.933 87.7649 109.559Z" fill="#A2E1F7"/>
<path d="M97.8448 69.1392C98.032 70.3092 97.231 71.38 97.007 72.5302C96.8599 73.2842 96.4329 72.8539 96.9855 73.6788C97.4875 72.5808 98.6125 70.0746 99.3268 69.2376C98.8269 70.7346 96.1104 76.4187 95.0943 77.6269C95.9196 74.6815 96.832 72.0262 97.8448 69.1392Z" fill="#A2E1F7"/>
<path d="M86.1087 106.757C86.0889 107.928 85.0578 114.457 84.6514 115.558C84.653 114.789 84.6749 113.751 84.8856 113.015C84.9869 112.662 85.1424 112.738 84.9861 112.346C84.6668 112.17 84.8236 112.182 84.5043 112.267C84.3682 113.174 84.081 114.031 83.613 114.823C83.6856 113.574 85.5371 107.969 86.1087 106.757Z" fill="#A2E1F7"/>
<path d="M91.0477 78.7458C90.7686 76.4182 90.8889 70.6677 91.1304 68.2356C91.2074 69.8898 91.3099 71.5355 91.2037 73.1905C91.1851 73.4765 91.5072 73.6572 91.7677 73.6779C91.8451 73.2136 91.6457 72.5147 91.5051 72.0654L91.6048 71.9426L91.8912 72.2615C92.089 71.9977 92.0452 71.4305 92.3596 70.8921C92.3807 72.1156 91.3293 77.3869 91.0477 78.7458Z" fill="#A2E1F7"/>
<path d="M95.7591 64.1645C95.8094 65.1162 95.6749 65.8945 95.463 66.8174C95.13 68.267 94.9983 69.6757 94.7009 71.1398L94.79 71.1569C94.8006 71.137 95.5428 69.0363 95.5606 68.9679C95.9589 67.4243 96.3276 65.5764 97.1277 64.1876L97.1897 64.0823C96.8672 65.6307 94.5437 73.3312 93.8797 74.428C94.2634 72.1012 94.6713 69.7786 95.1028 67.4603C95.2458 66.6865 95.5521 64.8095 95.7591 64.1645Z" fill="#A2E1F7"/>
<path d="M84.6364 71.7673C85.2194 73.4434 86.1407 77.2724 86.3858 79.0311C85.6727 77.9405 84.1158 74.2812 83.7305 72.952C84.2454 73.6873 84.8361 74.7236 84.9824 75.6097L85.1821 75.7466C85.4714 75.3038 85.3243 75.0854 85.1545 74.5644C84.8547 73.6464 84.6769 72.7336 84.6364 71.7673Z" fill="#A2E1F7"/>
<path d="M78.9992 77.7966C79.7625 78.5668 82.9822 82.4837 83.4505 83.3527C82.8039 82.8556 78.5082 79.194 78.0322 78.611C78.7687 78.6608 80.6352 80.6885 81.3073 81.246L81.4435 81.0848C80.856 80.2919 79.1374 78.7406 78.9992 77.7966Z" fill="#A2E1F7"/>
<path d="M84.905 103.727C84.499 105.333 83.1766 109.472 82.5693 111.05C82.5758 109.452 83.5449 107.839 83.7621 106.376C83.442 106.489 82.4389 109.852 81.4985 110.421C82.4616 108.332 83.7017 105.685 84.905 103.727Z" fill="#A2E1F7"/>
<path d="M98.4574 96.5935C99.6785 97.1299 103.576 99.1743 104.526 99.8865C103.616 99.9323 102.064 98.5418 101.146 98.3903C101.685 99.4238 103.259 99.8581 103.855 101.102C102.556 100.13 99.5679 97.6939 98.4574 96.5935Z" fill="#A2E1F7"/>
<path d="M77.2114 98.334C77.5108 98.4969 77.5473 98.49 77.7527 98.7711C76.6138 99.5855 74.8365 100.971 73.728 101.671C74.3045 100.743 76.474 99.5223 76.4522 99.1637C75.4506 99.4643 74.0557 100.477 72.5032 100.969L72.3971 101.002C73.008 100.548 76.2476 98.8761 77.2114 98.334Z" fill="#A2E1F7"/>
<path d="M79.0839 100.351C80.1664 99.3749 82.1086 97.7843 83.3374 97.0701C82.9566 97.6587 80.2073 100.792 79.6515 101.241C79.9557 100.705 80.3702 99.8745 80.8713 99.5657C81.1412 99.3996 81.1594 99.3551 81.3364 99.0852L81.225 98.9807C80.8227 99.1347 80.2701 99.8497 79.2269 100.291L79.0839 100.351Z" fill="#A2E1F7"/>
<path d="M82.1788 101.79C82.6342 101.028 84.5108 98.6705 85.1201 97.9514C84.732 99.1053 83.7313 101.472 82.9745 102.472C82.9785 101.518 83.8609 100.599 84.1344 99.5801C83.7329 100.198 82.8416 101.552 82.1788 101.79Z" fill="#A2E1F7"/>
<path d="M77.8944 81.3401C78.9348 82.1467 80.9022 83.8422 81.8539 84.7753C80.9034 84.3705 78.6934 83.2475 77.975 82.5604C78.8704 82.5798 78.8659 83.0911 79.7933 83.3946C79.2796 82.5916 78.2161 82.2756 77.8944 81.3401Z" fill="#A2E1F7"/>
<path d="M103.564 82.2978C102.788 82.7864 100.65 83.9131 99.7895 84.0415C100.003 83.7466 102.369 82.2139 102.762 82.043L102.969 82.3387C103.268 82.3675 103.266 82.3586 103.564 82.2978Z" fill="#A2E1F7"/>
<path d="M107.486 57.7591C107.995 56.5903 108.426 55.6799 109.015 54.5496C109.049 56.0575 108.822 56.9484 107.486 57.7591Z" fill="#E1E3E4"/>
<path d="M94.3318 104.59C94.0653 104.108 93.4093 101.867 93.443 101.27L93.5499 101.185C93.9202 101.567 94.4121 103.045 94.485 103.547C94.2707 103.935 94.3221 104.126 94.3318 104.59Z" fill="#6AAED4"/>
<path d="M77.2113 98.3341C78.0508 97.6968 78.8914 97.3172 79.8686 96.9331C79.1681 97.7114 78.6103 98.1631 77.7526 98.7712C77.5472 98.4901 77.5107 98.497 77.2113 98.3341Z" fill="#A2E1F7"/>
</svg>
