<svg width="50" height="50" viewBox="0 0 50 50" fill="none" xmlns="http://www.w3.org/2000/svg">
<circle cx="25" cy="25" r="24.5" stroke="#223649"/>
<path d="M24.5 33.9539C24.5 34.5061 24.9477 34.9539 25.5 34.9539C26.0523 34.9539 26.5 34.5061 26.5 33.9539H25.5H24.5ZM26.2071 16.2929C25.8166 15.9024 25.1834 15.9024 24.7929 16.2929L18.4289 22.6569C18.0384 23.0474 18.0384 23.6806 18.4289 24.0711C18.8195 24.4616 19.4526 24.4616 19.8431 24.0711L25.5 18.4142L31.1569 24.0711C31.5474 24.4616 32.1805 24.4616 32.5711 24.0711C32.9616 23.6806 32.9616 23.0474 32.5711 22.6569L26.2071 16.2929ZM25.5 33.9539H26.5V17H25.5H24.5V33.9539H25.5Z" fill="#223649"/>
</svg>
